<svg width="64" height="64" viewBox="0 0 64 64" fill="none" xmlns="http://www.w3.org/2000/svg">
<g clip-path="url(#clip0)">
<path d="M4.45544 23.7594C4.68221 23.8119 4.84282 24.0138 4.84282 24.2466V30.4594V34.0412V52.5744C4.84282 53.5898 5.66598 54.4124 6.68084 54.4124C7.69612 54.4124 8.51923 53.5897 8.51923 52.5744V35.5029C8.51923 35.2267 8.74309 35.0029 9.01923 35.0029H9.89578C10.1719 35.0029 10.3958 35.2267 10.3958 35.5029V52.5744C10.3958 53.5898 11.2189 54.4124 12.2338 54.4124C13.2491 54.4124 14.0722 53.5897 14.0722 52.5744V34.0412V30.4594V24.2545C14.0722 24.0217 14.233 23.8196 14.4599 23.7673C14.6868 23.715 14.9198 23.8263 15.0217 24.0357C15.1417 24.282 15.2615 24.562 15.3789 24.8856L15.3791 24.8863C15.9387 26.4371 16.3901 28.9235 16.3884 32.7412L4.45544 23.7594ZM4.45544 23.7594C4.22866 23.707 3.9957 23.818 3.89355 24.0272M4.45544 23.7594L3.89355 24.0272M3.89355 24.0272C3.19106 25.4654 2.51957 28.1236 2.52583 32.7416M3.89355 24.0272L2.52583 32.7416M16.2809 36.2166L16.2809 36.2166C16.2483 36.7751 16.6745 37.2542 17.2331 37.2869C17.2546 37.2881 17.2747 37.2887 17.2937 37.2887C17.8257 37.2887 18.2721 36.8727 18.3035 36.3346C18.3792 35.0327 18.4141 33.8384 18.4144 32.7417C18.4067 27.0747 17.4992 24.0305 16.3342 22.2491C15.7575 21.374 15.0956 20.8319 14.5093 20.5393L14.5073 20.5384C14.1229 20.3444 13.7739 20.2548 13.5002 20.2154C13.471 20.2112 13.4422 20.2045 13.4142 20.1952C13.3165 20.1628 13.215 20.1453 13.1105 20.1453H5.80429C5.69964 20.1453 5.59813 20.1628 5.5008 20.195C5.47279 20.2043 5.44401 20.211 5.41481 20.2152C5.14094 20.2546 4.79192 20.3442 4.4071 20.5384L4.40399 20.5399L4.40399 20.5399C3.52014 20.9781 2.49796 21.9728 1.76597 23.8376L1.7655 23.8387C1.02065 25.7222 0.502651 28.4914 0.5 32.7412L16.2809 36.2166ZM16.2809 36.2166C16.3548 34.9503 16.3884 33.7949 16.3884 32.7415L16.2809 36.2166ZM0.611664 36.3348L0.611667 36.3348C0.643185 36.8729 1.08951 37.2887 1.62165 37.2887C1.64098 37.2887 1.66142 37.2881 1.6836 37.2868L1.71167 37.786M0.611664 36.3348L2.6341 36.2163C2.66674 36.7751 2.24051 37.2542 1.68247 37.2869L1.71167 37.786M0.611664 36.3348C0.53522 35.0324 0.500006 33.8381 0.5 32.7415L0.611664 36.3348ZM1.71167 37.786C1.68141 37.7877 1.65153 37.7887 1.62165 37.7887C0.82624 37.7887 0.159612 37.168 0.112523 36.3641L1.71167 37.786ZM2.52583 32.7416C2.52583 33.7947 2.55984 34.9501 2.6341 36.2163L2.52583 32.7416Z" stroke="white" stroke-linejoin="round"/>
<path d="M10.3092 10.6571C12.3285 11.1274 13.5843 13.1456 13.114 15.1649C12.6438 17.1842 10.6256 18.44 8.60626 17.9697C6.58694 17.4995 5.33117 15.4813 5.80142 13.462C6.27166 11.4427 8.28985 10.1869 10.3092 10.6571Z" stroke="white" stroke-linejoin="round"/>
</g>
<g clip-path="url(#clip1)">
<path d="M25.0742 37.4818C25.2956 37.3357 25.4754 37.1333 25.5946 36.8963L25.1478 36.6718C25.2249 36.5185 25.2641 36.3435 25.2532 36.1585L25.0742 37.4818ZM25.0742 37.4818L24.7988 37.0644C24.6559 37.1587 24.4871 37.218 24.3025 37.229C24.3022 37.229 24.3019 37.229 24.3016 37.229L24.2812 37.23L24.3008 37.7296C24.2908 37.73 24.2808 37.7303 24.2708 37.7305L24.2606 37.2306L24.2408 37.2308C24.0643 37.2308 23.898 37.1853 23.7526 37.1049L23.5104 37.5423C23.2875 37.4189 23.0982 37.2406 22.9618 37.0246L23.3846 36.7576C23.2965 36.6181 23.2412 36.4549 23.2308 36.277L23.2308 36.2769C23.2067 35.8669 23.1868 35.4676 23.1707 35.0787L22.6711 35.0994C22.654 34.6854 22.6412 34.2829 22.6327 33.8916M25.0742 37.4818L22.6327 33.8916M25.6947 34.9813C25.6784 34.5865 25.6662 34.2036 25.658 33.8325L25.1581 33.8436C25.1493 33.4439 25.145 33.0574 25.145 32.6837C25.1445 32.3488 25.1476 32.0243 25.154 31.7098L25.6539 31.7201C25.6607 31.3881 25.6712 31.0678 25.6852 30.7588L25.1857 30.7363C25.2175 30.0312 25.2669 29.3828 25.3304 28.7868L25.8275 28.8398C25.8633 28.5044 25.9035 28.1865 25.9476 27.8852L25.4528 27.8129C25.5606 27.076 25.6913 26.4329 25.8362 25.8735L26.3202 25.9988C26.3929 25.7181 26.4689 25.4604 26.5471 25.2242H26.462V25.0314L26.1243 24.9141C26.2494 24.5541 26.3802 24.2406 26.5127 23.9693C26.6148 23.7602 26.8478 23.6492 27.0746 23.7016C27.3014 23.754 27.462 23.956 27.462 24.1887V25.2242H27.0752C27.0731 25.2302 27.071 25.2362 27.0689 25.2423L27.0169 25.2242H26.962V26.2597H27.462V28.3306H26.962V29.3661H27.462V30.4015V31.5955H26.962V32.7894H27.462V33.9833V35.013H26.962V36.0426H27.462V38.1018H26.962V39.1314H27.462V41.1907H26.962V42.2203H27.462V44.2796H26.962V45.3092H27.462V47.3684H26.962V48.398H27.462V50.4573H26.962V51.4869H27.462V52.5165C27.462 52.8523 27.5515 53.1655 27.7076 53.4353L27.2748 53.6857C27.4801 54.0405 27.776 54.3364 28.1308 54.5416L28.3812 54.1089C28.6511 54.265 28.9644 54.3545 29.3 54.3545C29.6357 54.3545 29.949 54.265 30.219 54.1089L30.4693 54.5417C30.8242 54.3365 31.1201 54.0406 31.3254 53.6858L30.8927 53.4354C31.0488 53.1655 31.1384 52.8523 31.1384 52.5165V51.5681H31.6384V50.6197H31.1384V48.7228H31.6384V47.7744H31.1384V45.8776H31.6384V44.9292H31.1384V43.0323H31.6384V42.0839H31.1384V40.1871H31.6384V39.2387H31.1384V37.3418H31.6384V36.3934H31.1384V35.445C31.1384 35.1689 31.3622 34.945 31.6384 34.945H31.9306V35.445H32.0149H32.1384H32.2227V34.945H32.5149C32.7911 34.945 33.0149 35.1689 33.0149 35.445V36.3934H32.5149V37.3418H33.0149V39.2387H32.5149V40.1871H33.0149V42.0839H32.5149V43.0323H33.0149V44.9292H32.5149V45.8776H33.0149V47.7744H32.5149V48.7229H33.0149V50.6197H32.5149V51.5681H33.0149V52.5165C33.0149 52.8523 33.1045 53.1655 33.2606 53.4353L32.8278 53.6857C33.0331 54.0405 33.329 54.3364 33.6837 54.5416L33.9341 54.1089C34.204 54.265 34.5173 54.3545 34.8529 54.3545C35.1887 54.3545 35.502 54.265 35.7719 54.1089L36.0223 54.5417C36.3771 54.3365 36.6731 54.0406 36.8784 53.6858L36.4456 53.4354C36.6018 53.1655 36.6913 52.8523 36.6913 52.5165V51.4869H37.1913V50.4573H36.6913V48.398H37.1913V47.3684H36.6913V45.3092H37.1913V44.2796H36.6913V42.2203H37.1913V41.1907H36.6913V39.1314H37.1913V38.1018H36.6913V36.0426H37.1913V35.013H36.6913V33.9833V32.7894H37.1913V31.5955H36.6913V30.4015V29.3674H37.1913V28.3332H36.6913V26.265H37.1913V25.5663C37.1547 25.4489 37.1176 25.3372 37.0801 25.2308H36.6913V24.1967C36.6913 23.9638 36.8521 23.7618 37.079 23.7095C37.306 23.6572 37.539 23.7684 37.6409 23.9778C37.6842 24.0668 37.7275 24.1602 37.7708 24.2585L37.6913 24.2934V24.621L37.8894 24.5421C37.9258 24.6334 37.962 24.7285 37.998 24.8277L37.9983 24.8284C38.0924 25.0893 38.1832 25.376 38.2692 25.6902L37.787 25.8222C37.8579 26.0812 37.9258 26.3612 37.9896 26.6632L38.4788 26.5598C38.5887 27.0796 38.6862 27.6601 38.7666 28.3067L38.2704 28.3684C38.3045 28.6424 38.3355 28.929 38.363 29.2287L38.8609 29.1829C38.9107 29.7249 38.9493 30.3078 38.9743 30.9339L38.4747 30.9539C38.4858 31.2328 38.4943 31.5207 38.4998 31.8178L38.9998 31.8084C39.005 32.0919 39.0077 32.3835 39.0076 32.6834L25.6947 34.9813ZM25.6947 34.9813L25.1952 35.0021C25.2107 35.3768 25.23 35.7622 25.2532 36.1584L25.6947 34.9813ZM38.4947 33.8327C38.4866 34.2038 38.4745 34.5867 38.4582 34.9816L38.9578 35.0022C38.9424 35.377 38.9232 35.7624 38.9001 36.1587L38.9001 36.1588C38.8892 36.3438 38.9284 36.5187 39.0055 36.672L38.5589 36.8967C38.6781 37.1337 38.8581 37.3359 39.0795 37.4819L39.3547 37.0645C39.4978 37.1588 39.6667 37.2181 39.8516 37.229C39.8518 37.229 39.852 37.229 39.8522 37.229L39.8726 37.23L39.853 37.7296C39.863 37.73 39.8729 37.7303 39.8829 37.7305L39.8931 37.2306L39.9129 37.2308C40.0893 37.2308 40.2556 37.1853 40.401 37.1048L40.6432 37.5422C40.8661 37.4188 41.0554 37.2404 41.1918 37.0243L40.769 36.7574C40.8571 36.6178 40.9123 36.4546 40.9227 36.2767C40.9465 35.8668 40.9663 35.4676 40.9822 35.0786L41.4818 35.0991C41.4987 34.6852 41.5114 34.2828 41.5199 33.8914L41.02 33.8805C41.029 33.4692 41.0334 33.0705 41.0336 32.6839C41.0332 32.3698 41.03 32.0636 41.0241 31.7652L41.524 31.7554C41.5178 31.4381 41.5086 31.1293 41.4965 30.8287L40.9969 30.8488C40.971 30.202 40.9316 29.5948 40.8802 29.0244L41.3782 28.9795C41.3495 28.6618 41.3172 28.3551 41.2813 28.0588L40.7849 28.119C40.7063 27.4703 40.6107 26.8747 40.5005 26.3272L40.9907 26.2286C40.9271 25.9125 40.8586 25.6114 40.7857 25.3243L40.3011 25.4474C40.1388 24.8091 39.9547 24.2465 39.7541 23.7487L40.2179 23.5618C40.0963 23.26 39.9683 22.9795 39.8348 22.7183L39.3896 22.9458C39.2494 22.6715 39.1036 22.421 38.9534 22.1913C38.7857 21.9369 38.6108 21.7105 38.4326 21.5103L38.8062 21.1779C38.5862 20.9307 38.3598 20.7179 38.1328 20.537L37.8213 20.9281C37.5851 20.7399 37.3512 20.5926 37.1284 20.4815L37.1265 20.4805C37.0142 20.4239 36.9051 20.3762 36.8001 20.3361L36.9786 19.869C36.8433 19.8173 36.7133 19.7763 36.5903 19.744L36.4631 20.2275C36.3391 20.1949 36.2238 20.1726 36.1193 20.1576C36.0901 20.1534 36.0614 20.1466 36.0334 20.1373C36.0001 20.1263 35.9666 20.1171 35.9326 20.1096L36.0399 19.6212C35.9894 19.6102 35.938 19.6016 35.8857 19.5959L35.8313 20.093C35.7979 20.0893 35.764 20.0874 35.7297 20.0874H34.512V19.5874H33.2943V20.0874H30.8588V19.5874H29.6411V20.0874H28.4234C28.389 20.0874 28.3551 20.0893 28.3216 20.0929L28.2675 19.5959C28.2152 19.6016 28.1638 19.6101 28.1134 19.6211L28.2204 20.1095C28.1865 20.1169 28.153 20.1262 28.1199 20.1371C28.0919 20.1464 28.0632 20.1532 28.034 20.1574C27.9294 20.1724 27.814 20.1948 27.69 20.2274L27.5628 19.7438C27.4397 19.7762 27.3097 19.8172 27.1743 19.8689L27.3528 20.336C27.2478 20.3761 27.1386 20.4238 27.0262 20.4805L27.0231 20.4821L27.0231 20.4821C26.8329 20.5764 26.6366 20.6962 26.4382 20.8448L26.1384 20.4447C25.9418 20.592 25.7455 20.7629 25.5523 20.9594L25.9087 21.31C25.6082 21.6155 25.3112 21.9934 25.0326 22.4542L24.6047 22.1956C24.476 22.4085 24.3515 22.637 24.2325 22.8817L24.6822 23.1003C24.5789 23.3128 24.4796 23.539 24.3851 23.7797L24.3846 23.7809C24.2705 24.0695 24.1616 24.3791 24.0591 24.7119L23.5812 24.5646C23.4855 24.8753 23.3954 25.2044 23.3117 25.5535L23.7979 25.6701C23.6559 26.2617 23.5321 26.9152 23.4304 27.6389L22.9353 27.5693C22.8896 27.8949 22.8483 28.2337 22.8119 28.5867L23.3093 28.638C23.2448 29.2626 23.1954 29.9333 23.1632 30.6544L22.6637 30.632C22.6489 30.9633 22.6376 31.3049 22.6301 31.657L23.13 31.6676C23.123 31.9965 23.1194 32.335 23.1191 32.6834C23.1191 32.6835 23.1191 32.6836 23.1191 32.6837M38.4947 33.8327L23.1191 32.6837M38.4947 33.8327L38.9946 33.8436C39.0033 33.4439 39.0076 33.0573 39.0076 32.6836L38.4947 33.8327ZM23.1191 32.6837C23.1191 33.0703 23.1235 33.4692 23.1325 33.8806L22.6327 33.8916M23.1191 32.6837L22.6327 33.8916" stroke="white" stroke-linejoin="round" stroke-dasharray="2 1"/>
<path d="M35.7331 15.107C35.6567 15.4352 35.5397 15.7425 35.3889 16.0252L35.8301 16.2605C35.653 16.5925 35.4346 16.8951 35.1831 17.1633L34.8184 16.8212C34.368 17.3015 33.7972 17.6567 33.1674 17.8485L33.3131 18.3268C32.9614 18.434 32.5934 18.4962 32.2174 18.5084L32.2012 18.0087C31.8809 18.0191 31.5536 17.9883 31.2254 17.9119C30.8972 17.8354 30.59 17.7184 30.3072 17.5676L30.0719 18.0088C29.74 17.8317 29.4373 17.6133 29.1692 17.3618L29.5112 16.9971C29.031 16.5467 28.6757 15.9759 28.4839 15.3461L28.0056 15.4918C27.8984 15.1401 27.8362 14.7721 27.824 14.3961L28.3237 14.3799C28.3134 14.0596 28.3441 13.7323 28.4206 13.4041C28.497 13.076 28.614 12.7687 28.7648 12.4859L28.3236 12.2506C28.5007 11.9187 28.7191 11.616 28.9706 11.3479L29.3353 11.6899C29.7857 11.2097 30.3565 10.8545 30.9863 10.6626L30.8406 10.1843C31.1923 10.0771 31.5603 10.0149 31.9363 10.0027L31.9525 10.5024C32.2728 10.4921 32.6002 10.5229 32.9283 10.5993C33.2565 10.6757 33.5638 10.7927 33.8465 10.9435L34.0818 10.5023C34.4137 10.6794 34.7164 10.8978 34.9845 11.1493L34.6425 11.514C35.1228 11.9644 35.478 12.5352 35.6698 13.165L36.1481 13.0193C36.2553 13.371 36.3175 13.739 36.3297 14.115L35.83 14.1312C35.8404 14.4515 35.8096 14.7789 35.7331 15.107Z" stroke="white" stroke-linejoin="round" stroke-dasharray="2 1"/>
</g>
<g clip-path="url(#clip2)">
<path d="M49.474 23.7594C49.7008 23.8119 49.8614 24.0138 49.8614 24.2466V30.4594V34.0412V52.5744C49.8614 53.5898 50.6845 54.4124 51.6994 54.4124C52.7147 54.4124 53.5378 53.5897 53.5378 52.5744V35.5029C53.5378 35.2267 53.7616 35.0029 54.0378 35.0029H54.9143C55.1905 35.0029 55.4143 35.2267 55.4143 35.5029V52.5744C55.4143 53.5898 56.2375 54.4124 57.2524 54.4124C58.2676 54.4124 59.0907 53.5897 59.0907 52.5744V34.0412V30.4594V24.2545C59.0907 24.0217 59.2515 23.8196 59.4784 23.7673C59.7054 23.715 59.9384 23.8263 60.0403 24.0357C60.1602 24.282 60.2801 24.562 60.3974 24.8856L60.3977 24.8863C60.9572 26.4371 61.4087 28.9235 61.407 32.7412L49.474 23.7594ZM49.474 23.7594C49.2472 23.707 49.0143 23.818 48.9121 24.0272M49.474 23.7594L48.9121 24.0272M48.9121 24.0272C48.2096 25.4654 47.5381 28.1236 47.5444 32.7416M48.9121 24.0272L47.5444 32.7416M61.2995 36.2166L61.2995 36.2166C61.2668 36.7751 61.693 37.2542 62.2517 37.2869C62.2731 37.2881 62.2932 37.2887 62.3123 37.2887C62.8443 37.2887 63.2907 36.8727 63.3221 36.3346C63.3978 35.0327 63.4326 33.8384 63.433 32.7417C63.4253 27.0747 62.5177 24.0305 61.3528 22.2491C60.7761 21.374 60.1142 20.8319 59.5279 20.5393L59.5259 20.5384C59.1415 20.3444 58.7924 20.2548 58.5187 20.2154C58.4895 20.2112 58.4608 20.2045 58.4328 20.1952C58.3351 20.1628 58.2336 20.1453 58.1291 20.1453H50.8228C50.7182 20.1453 50.6167 20.1628 50.5194 20.195C50.4913 20.2043 50.4626 20.211 50.4334 20.2152C50.1595 20.2546 49.8105 20.3442 49.4257 20.5384L49.4225 20.5399L49.4225 20.5399C48.5387 20.9781 47.5165 21.9728 46.7845 23.8376L46.7841 23.8387C46.0392 25.7222 45.5212 28.4914 45.5186 32.7412L61.2995 36.2166ZM61.2995 36.2166C61.3734 34.9503 61.407 33.7949 61.407 32.7415L61.2995 36.2166ZM45.6302 36.3348L45.6302 36.3348C45.6617 36.8729 46.1081 37.2887 46.6402 37.2887C46.6595 37.2887 46.68 37.2881 46.7022 37.2868L46.7302 37.786M45.6302 36.3348L47.6527 36.2163C47.6853 36.7751 47.2591 37.2542 46.701 37.2869L46.7302 37.786M45.6302 36.3348C45.5538 35.0324 45.5186 33.8381 45.5186 32.7415L45.6302 36.3348ZM46.7302 37.786C46.7 37.7877 46.6701 37.7887 46.6402 37.7887C45.8448 37.7887 45.1782 37.168 45.1311 36.3641L46.7302 37.786ZM47.5444 32.7416C47.5444 33.7947 47.5784 34.9501 47.6527 36.2163L47.5444 32.7416Z" stroke="white" stroke-linejoin="round"/>
<path d="M55.3277 10.6571C57.347 11.1274 58.6028 13.1456 58.1326 15.1649C57.6623 17.1842 55.6441 18.44 53.6248 17.9697C51.6055 17.4995 50.3497 15.4813 50.82 13.462C51.2902 11.4427 53.3084 10.1869 55.3277 10.6571Z" stroke="white" stroke-linejoin="round"/>
</g>
<defs>
<clipPath id="clip0">
<rect width="19.2007" height="44.97" fill="white" transform="translate(0 10)"/>
</clipPath>
<clipPath id="clip1">
<rect width="19.2007" height="44.97" fill="white" transform="translate(22.3999 10)"/>
</clipPath>
<clipPath id="clip2">
<rect width="19.2007" height="44.97" fill="white" transform="translate(44.7993 10)"/>
</clipPath>
</defs>
</svg>
