<svg width="64" height="64" viewBox="0 0 64 64" fill="none" xmlns="http://www.w3.org/2000/svg">
<path d="M26.1141 34.1713C26.1141 37.8558 25.4191 40.655 24.0291 42.569C22.6391 44.4711 20.591 45.4221 17.8848 45.4221C15.2278 45.4221 13.192 44.489 11.7774 42.6229C10.3628 40.7447 9.637 38.0173 9.6001 34.4404V29.7571C9.6001 26.0845 10.3013 23.3032 11.7036 21.4131C13.1059 19.523 15.154 18.578 17.8479 18.578C20.5049 18.578 22.5345 19.4931 23.9368 21.3234C25.3391 23.1417 26.0649 25.8273 26.1141 29.3802V34.1713ZM23.8999 29.4879C23.8999 26.4973 23.3956 24.2363 22.3869 22.7051C21.3905 21.1739 19.8775 20.4083 17.8479 20.4083C15.8551 20.4083 14.3544 21.1559 13.3457 22.6513C12.3371 24.1466 11.8204 26.3537 11.7958 29.2726V34.4045C11.7958 37.3832 12.3125 39.6621 13.3457 41.2412C14.3913 42.8202 15.9043 43.6098 17.8848 43.6098C19.8529 43.6098 21.3413 42.8382 22.35 41.295C23.371 39.7518 23.8876 37.4909 23.8999 34.5122V29.4879Z" fill="white"/>
<path d="M30.3579 23.9612C30.3579 22.406 30.85 21.1201 31.834 20.1032C32.8304 19.0745 34.0913 18.5601 35.6166 18.5601C37.1419 18.5601 38.3966 19.0745 39.3807 20.1032C40.377 21.1201 40.8752 22.4419 40.8752 24.0688V25.3429C40.8752 26.8741 40.3832 28.1541 39.3991 29.1829C38.4273 30.1997 37.1788 30.7081 35.6535 30.7081C34.1405 30.7081 32.8796 30.2057 31.8709 29.2008C30.8623 28.1959 30.3579 26.8681 30.3579 25.2173V23.9612ZM32.1477 25.3429C32.1477 26.4554 32.4614 27.3705 33.0887 28.0883C33.7284 28.806 34.5833 29.1649 35.6535 29.1649C36.6991 29.1649 37.5294 28.806 38.1444 28.0883C38.7718 27.3586 39.0854 26.4195 39.0854 25.2711V23.9612C39.0854 22.8487 38.7656 21.9335 38.126 21.2158C37.4863 20.486 36.6499 20.1212 35.6166 20.1212C34.5956 20.1212 33.7591 20.4801 33.1072 21.1978C32.4675 21.9156 32.1477 22.8726 32.1477 24.0688V25.3429ZM43.8828 38.6573C43.8828 37.1021 44.3748 35.8161 45.3589 34.7993C46.3553 33.7825 47.61 33.2741 49.123 33.2741C50.636 33.2741 51.8907 33.7825 52.8871 34.7993C53.8958 35.8042 54.4001 37.132 54.4001 38.7829V40.0569C54.4001 41.612 53.9019 42.898 52.9055 43.9148C51.9215 44.9316 50.6729 45.4401 49.1599 45.4401C47.6469 45.4401 46.386 44.9376 45.3774 43.9328C44.381 42.9159 43.8828 41.5941 43.8828 39.9672V38.6573ZM45.6541 40.0569C45.6541 41.1814 45.9678 42.1025 46.5952 42.8202C47.2348 43.538 48.0897 43.8969 49.1599 43.8969C50.2178 43.8969 51.0542 43.538 51.6693 42.8202C52.2966 42.0905 52.6103 41.1395 52.6103 39.9672V38.6573C52.6103 37.5088 52.2905 36.5877 51.6508 35.8939C51.0235 35.1881 50.1809 34.8352 49.123 34.8352C48.0897 34.8352 47.2533 35.1881 46.6136 35.8939C45.974 36.5997 45.6541 37.5447 45.6541 38.729V40.0569ZM36.3546 42.892L34.9708 42.0307L48.0897 21.6105L49.4736 22.4718L36.3546 42.892Z" fill="white"/>
</svg>
