<svg width="300" height="300" viewBox="0 0 300 300" fill="none" xmlns="http://www.w3.org/2000/svg">
<path d="M274.939 143.558C274.939 182.36 258.513 217.159 232.528 240.8C231.973 241.306 231.406 241.812 230.839 242.311C214.694 256.479 195.02 266.414 173.394 270.466C173.388 270.473 173.388 270.473 173.388 270.473C166.241 271.815 158.883 272.514 151.369 272.514C143.861 272.514 136.502 271.815 129.362 270.473C129.244 270.454 129.125 270.429 129.007 270.404C106.352 266.083 85.8547 255.318 69.3234 239.982C67.1097 237.934 64.9583 235.798 62.8943 233.582C41.1748 210.341 27.7988 178.582 27.7988 143.558C27.7988 72.3364 83.1234 14.6021 151.369 14.6021C219.614 14.6021 274.939 72.3364 274.939 143.558Z" fill="white"/>
<path d="M175.426 46.3853C175.526 46.4352 175.62 46.4789 175.719 46.5289C173.113 50.5377 169.109 51.1434 164.607 50.2567C155.104 48.3834 147.265 41.6584 138.304 37.9243C129.961 34.4463 120.582 33.6345 111.715 35.6202C105.753 36.9564 100.091 39.5041 94.6033 42.3265C77.1679 51.3057 61.1043 63.2697 47.2544 77.5878C41.3304 83.7134 35.6308 90.4072 28.179 94.2599C20.7271 98.1126 10.8245 98.3374 5.14368 92.1743C1.33981 88.0469 0.161227 81.9088 0.391954 76.1204C0.635153 70.0697 2.2253 64.1189 4.3642 58.4554C12.3212 37.3498 28.3348 19.4663 48.1961 10.3247C68.0573 1.18939 91.5353 1.08323 110.916 10.6057C123.438 16.7563 134.058 26.5847 146.76 32.3357C152.94 35.1331 159.55 36.919 166.278 37.6183C168.879 37.8868 171.641 38.0429 173.786 39.5853C175.938 41.1276 177.253 44.3871 175.426 46.3853Z" fill="#FDF9EA"/>
<path d="M96.0312 285.009C79.6808 294.519 59.832 299.577 40.0706 292.902C20.3154 286.221 1.52674 265.34 0.0862606 243.035C-0.42508 235.136 1.17754 227.618 3.67188 220.781C9.40887 205.058 20.4089 192.139 35.138 187.412C49.8734 182.685 68.3627 187.068 81.3582 200.325C90.6497 209.797 97.1038 223.335 108.029 229.741C118.381 235.811 137.375 237.953 130.098 254.013C123.98 267.525 107.68 278.234 96.0312 285.009Z" fill="#FDF9EA"/>
<path d="M206.014 296.667C211.377 296.561 216.908 295.931 221.423 292.452C225.937 288.974 229.174 281.956 227.945 274.869C226.916 268.924 223.006 264.216 218.747 261.812C214.488 259.408 209.874 258.915 205.359 258.453C198.899 257.791 192.438 257.129 185.984 256.467C179.929 255.849 173.706 255.249 168.056 257.622C162.406 259.995 157.387 266.052 156.925 274.032C155.528 298.066 195.818 296.867 206.014 296.667Z" fill="#FDF9EA"/>
<path d="M226.622 57.2003C231.786 62.7889 238.782 66.1296 246.01 67.7656C254.384 69.6576 263.663 69.2393 271.084 64.3125C276.659 60.6159 280.712 54.7089 283.743 48.4709C285.221 45.4237 286.512 42.1767 286.649 38.7798C286.842 34.003 284.759 29.5508 282.496 25.5045C273.766 9.91888 251.204 -10.6122 234.149 6.41586C221.266 19.279 213.259 42.7449 226.622 57.2003Z" fill="#FDF9EA"/>
<path d="M20.1473 168.922C26.1587 171.395 32.881 171.533 39.2104 170.296C46.55 168.86 53.8335 165.351 58.1113 159.057C61.3227 154.33 62.5824 148.448 62.9066 142.665C63.0625 139.843 63.0002 136.927 61.9713 134.298C60.5183 130.595 57.3505 127.929 54.1764 125.637C41.9417 116.789 16.9795 108.928 9.06621 127.735C3.09226 141.935 4.58886 162.522 20.1473 168.922Z" fill="#FDF9EA"/>
<path d="M272.207 89.9077C272.388 90.0825 272.575 90.2449 272.769 90.4072C275.693 92.7925 280.139 92.9923 283.632 92.2305C287.623 91.3563 292.15 87.5286 292.511 80.6599C292.854 74.1722 289.219 69.1331 285.664 66.8851C282.266 64.7371 278.425 63.9628 275.026 66.1483C271.627 68.3338 268.834 73.9536 268.877 80.1791C268.902 83.7633 269.651 87.4412 272.207 89.9077Z" fill="#FDF9EA"/>
<path d="M255.967 294.219C256.354 294.588 256.759 294.944 257.183 295.281C263.513 300.351 273.147 300.782 280.711 299.152C289.348 297.298 299.163 289.155 299.943 274.55C300.679 260.756 292.809 250.048 285.108 245.265C277.749 240.694 269.431 239.045 262.06 243.691C254.689 248.337 248.647 260.288 248.746 273.52C248.815 281.15 250.436 288.968 255.967 294.219Z" fill="#FDF9EA"/>
<path d="M229.716 253.507C229.728 250.366 232.26 247.831 235.366 247.85C238.471 247.868 240.978 250.422 240.965 253.569C240.953 256.71 238.421 259.245 235.316 259.227C232.21 259.208 229.703 256.648 229.716 253.507Z" fill="#FDF9EA"/>
<path d="M291.21 159.028C291.705 107.206 247.638 64.7692 192.782 64.2436C137.927 63.718 93.056 105.302 92.5607 157.124C92.0655 208.946 136.133 251.383 190.989 251.908C245.844 252.434 290.715 210.85 291.21 159.028Z" fill="#FDF9EA"/>
<path opacity="0.3" d="M274.939 143.558C274.939 182.36 258.513 217.159 232.528 240.8C231.973 241.306 231.406 241.812 230.838 242.311C214.694 256.479 195.02 266.414 173.394 270.466C173.387 270.473 173.387 270.473 173.387 270.473C166.241 271.815 158.883 272.514 151.369 272.514C143.861 272.514 136.502 271.815 129.362 270.473C129.244 270.454 129.125 270.429 129.007 270.404C106.352 266.083 85.8547 255.318 69.3234 239.982C67.1097 237.934 64.9583 235.798 62.8943 233.582C41.1748 210.341 27.7988 178.582 27.7988 143.558C27.7988 72.3364 83.1234 14.6021 151.369 14.6021C219.614 14.6021 274.939 72.3364 274.939 143.558Z" fill="#E9C352"/>
<path d="M173.836 219.413C173.586 220.862 173.281 222.304 172.913 223.716C172.308 226.088 171.535 228.374 170.618 230.434C167.381 237.74 155.633 262.349 143.704 256.192C142.65 255.649 141.852 254.862 141.284 253.875C141.278 253.869 141.278 253.863 141.278 253.863C135.953 244.665 149.927 218.271 154.255 211.67C154.486 211.315 154.691 211.015 154.86 210.784C171.99 187.374 176.573 203.478 173.836 219.413Z" fill="#DAB3A6"/>
<path opacity="0.5" d="M186.477 202.367C183.665 210.609 177.741 219.701 172.921 223.716C172.316 226.088 171.543 228.374 170.626 230.434C167.389 237.74 155.641 262.349 143.712 256.192C142.658 255.649 141.86 254.862 141.292 253.875C141.286 253.869 141.286 253.863 141.286 253.863C147.921 250.735 159.189 237.909 168.811 225.832C170.551 223.647 172.241 221.493 173.837 219.42C181.102 209.991 186.477 202.367 186.477 202.367Z" fill="#CFD1D2"/>
<path d="M150.526 257.16C150.526 257.16 125.277 261.287 98.0762 209.51L102.647 198.938C102.647 198.938 163.528 243.035 150.526 257.16Z" fill="#DAB3A6"/>
<path d="M179.565 186.256C179.565 186.256 152.414 185.37 147.774 216.16L173.865 220.05L179.565 186.256Z" fill="#709982"/>
<path d="M178.621 111.744C194.137 96.2285 194.137 71.0728 178.621 55.5572C163.105 40.0417 137.95 40.0417 122.434 55.5572C106.919 71.0728 106.919 96.2285 122.434 111.744C137.95 127.26 163.105 127.26 178.621 111.744Z" fill="#FEFCE6"/>
<path d="M168.751 56.526H162.354V68.4338H168.751V56.526Z" fill="#AC5F27"/>
<path d="M169.741 55.4583H161.316V56.526H169.741V55.4583Z" fill="#85451D"/>
<path d="M175.36 106.018H125.18V73.4416L149.15 50.494L175.36 73.4416V106.018Z" fill="#E6B958"/>
<path d="M149.381 50.2692L148.92 50.7188L175.023 73.5789V106.018H175.697V73.3042L149.381 50.2692Z" fill="#CD8338"/>
<path d="M175.914 106.018H135.718L135.032 99.3179H176.482L175.914 106.018Z" fill="#C8615A"/>
<path d="M154.781 106.018H125.18V73.4417L138.281 60.897L154.781 73.5228V106.018Z" fill="#F1CE87"/>
<path d="M177.437 76.008L178.665 74.7966L149.357 49.1016L122 74.8216L123.278 75.9893L138.213 61.946L156.104 76.5076L157.283 75.2587L139.473 60.7596L149.4 51.4307L177.437 76.008Z" fill="#A04C4A"/>
<path d="M154.782 106.018H125.18L124.675 99.3179H155.199L154.782 106.018Z" fill="#C8615A"/>
<path d="M129.688 98.1127V89.8203C129.688 88.1281 131.173 86.7482 133 86.7482C134.827 86.7482 136.311 88.1281 136.311 89.8203V98.1127H129.688Z" fill="#4A7B64"/>
<path d="M129.688 98.1127V89.8203C129.688 88.1281 131.173 86.7482 133 86.7482C134.827 86.7482 136.311 88.1281 136.311 89.8203V98.1127H129.688Z" fill="#74ACC2"/>
<path d="M132.993 86.567C131.06 86.567 129.495 88.0219 129.495 89.8203V98.2937H136.498V89.8203C136.498 88.0219 134.927 86.567 132.993 86.567ZM136.118 97.9378H129.876V89.8203C129.876 88.2217 131.272 86.9229 132.993 86.9229C134.715 86.9229 136.111 88.2217 136.111 89.8203V97.9378H136.118Z" fill="#FCF8F2"/>
<path d="M129.688 83.8259V75.5335C129.688 73.8413 131.173 72.4613 133 72.4613C134.827 72.4613 136.311 73.8413 136.311 75.5335V83.8259H129.688Z" fill="#4A7B64"/>
<path d="M129.688 83.8259V75.5335C129.688 73.8413 131.173 72.4613 133 72.4613C134.827 72.4613 136.311 73.8413 136.311 75.5335V83.8259H129.688Z" fill="#74ACC2"/>
<path d="M132.993 72.2802C131.06 72.2802 129.495 73.7351 129.495 75.5334V84.0069H136.498V75.5334C136.498 73.7351 134.927 72.2802 132.993 72.2802ZM136.118 83.6509H129.876V75.5334C129.876 73.9349 131.272 72.6361 132.993 72.6361C134.715 72.6361 136.111 73.9349 136.111 75.5334V83.6509H136.118Z" fill="#FCF8F2"/>
<path d="M141.999 83.8259V75.5335C141.999 73.8413 143.483 72.4613 145.31 72.4613C147.137 72.4613 148.621 73.8413 148.621 75.5335V83.8259H141.999Z" fill="#4A7B64"/>
<path d="M141.999 83.8259V75.5335C141.999 73.8413 143.483 72.4613 145.31 72.4613C147.137 72.4613 148.621 73.8413 148.621 75.5335V83.8259H141.999Z" fill="#74ACC2"/>
<path d="M145.309 72.2802C143.376 72.2802 141.811 73.7351 141.811 75.5334V84.0069H148.813V75.5334C148.807 73.7351 147.242 72.2802 145.309 72.2802ZM148.427 83.6509H142.185V75.5334C142.185 73.9349 143.582 72.6361 145.303 72.6361C147.024 72.6361 148.421 73.9349 148.421 75.5334V83.6509H148.427Z" fill="#FCF8F2"/>
<path d="M142.534 98.1127V89.8203C142.534 88.1281 144.018 86.7482 145.845 86.7482C147.673 86.7482 149.157 88.1281 149.157 89.8203V98.1127H142.534Z" fill="#4A7B64"/>
<path d="M142.534 98.1127V89.8203C142.534 88.1281 144.018 86.7482 145.845 86.7482C147.673 86.7482 149.157 88.1281 149.157 89.8203V98.1127H142.534Z" fill="#74ACC2"/>
<path d="M145.839 86.567C143.906 86.567 142.341 88.0219 142.341 89.8203V98.2937H149.344V89.8203C149.344 88.0219 147.772 86.567 145.839 86.567ZM148.963 97.9378H142.721V89.8203C142.721 88.2217 144.118 86.9229 145.839 86.9229C147.56 86.9229 148.957 88.2217 148.957 89.8203V97.9378H148.963Z" fill="#FCF8F2"/>
<path d="M162.971 84.4253V76.133C162.971 74.4408 164.455 73.0608 166.282 73.0608C168.109 73.0608 169.593 74.4408 169.593 76.133V84.4253H162.971Z" fill="#4A7B64"/>
<path d="M162.971 84.4253V76.133C162.971 74.4408 164.455 73.0608 166.282 73.0608C168.109 73.0608 169.593 74.4408 169.593 76.133V84.4253H162.971Z" fill="#74ACC2"/>
<path d="M166.281 72.8796C164.347 72.8796 162.782 74.3345 162.782 76.1329V84.6063H169.785V76.1329C169.785 74.3345 168.214 72.8796 166.281 72.8796ZM169.405 84.2504H163.163V76.1329C163.163 74.5344 164.559 73.2356 166.281 73.2356C168.002 73.2356 169.398 74.5344 169.398 76.1329V84.2504H169.405Z" fill="#FCF8F2"/>
<path d="M148.914 65.3491V60.6846C148.914 59.7292 149.75 58.955 150.779 58.955C151.808 58.955 152.643 59.7292 152.643 60.6846V65.3491H148.914Z" fill="#4A7B64"/>
<path d="M148.914 65.3491V60.6846C148.914 59.7292 149.75 58.955 150.779 58.955C151.808 58.955 152.643 59.7292 152.643 60.6846V65.3491H148.914Z" fill="#74ACC2"/>
<path d="M150.778 58.855C149.693 58.855 148.808 59.673 148.808 60.6845V65.4489H152.742V60.6845C152.742 59.673 151.863 58.855 150.778 58.855ZM152.53 65.2491H149.02V60.6845C149.02 59.7854 149.805 59.0548 150.772 59.0548C151.738 59.0548 152.524 59.7854 152.524 60.6845V65.2491H152.53Z" fill="#FCF8F2"/>
<path d="M171.913 86.7483H161.486V102.727H171.913V86.7483Z" fill="#CD8338"/>
<path d="M171.062 87.5663H162.332V102.727H171.062V87.5663Z" fill="#6B4629"/>
<path d="M172.104 102.621H161.347V102.871H172.104V102.621Z" fill="#DBC6B3"/>
<path d="M171.686 102.871H161.715V103.714H171.686V102.871Z" fill="#A99789"/>
<path d="M172.773 103.72H160.688V103.97H172.773V103.72Z" fill="#DBC6B3"/>
<path d="M172.299 103.97H161.1V104.813H172.299V103.97Z" fill="#A99789"/>
<path d="M173.239 104.813H159.825V105.094H173.239V104.813Z" fill="#DBC6B3"/>
<path d="M172.72 105.094H160.286V106.043H172.72V105.094Z" fill="#A99789"/>
<path d="M123.28 75.9892L125.182 74.2034V75.9892H123.28Z" fill="#54231E"/>
<path d="M154.781 75.4336L156.105 76.5076H154.781V75.4336Z" fill="#54231E"/>
<path d="M175.696 74.4844L177.436 76.008H175.696V74.4844Z" fill="#54231E"/>
<path d="M116.605 53.5725L110.662 48.6333" stroke="#FEFCE6" stroke-miterlimit="10" stroke-linecap="round" stroke-linejoin="round"/>
<path d="M123.776 46.5414L119.187 40.3221" stroke="#FEFCE6" stroke-miterlimit="10" stroke-linecap="round" stroke-linejoin="round"/>
<path d="M132.419 41.4275L129.444 34.2903" stroke="#FEFCE6" stroke-miterlimit="10" stroke-linecap="round" stroke-linejoin="round"/>
<path d="M142.036 38.53L140.85 30.8871" stroke="#FEFCE6" stroke-miterlimit="10" stroke-linecap="round" stroke-linejoin="round"/>
<path d="M152.056 38.018L152.73 30.3126" stroke="#FEFCE6" stroke-miterlimit="10" stroke-linecap="round" stroke-linejoin="round"/>
<path d="M161.914 39.9226L164.408 32.5981" stroke="#FEFCE6" stroke-miterlimit="10" stroke-linecap="round" stroke-linejoin="round"/>
<path d="M171.03 44.1249L175.202 37.6122" stroke="#FEFCE6" stroke-miterlimit="10" stroke-linecap="round" stroke-linejoin="round"/>
<path d="M178.882 50.3879L184.488 45.0615" stroke="#FEFCE6" stroke-miterlimit="10" stroke-linecap="round" stroke-linejoin="round"/>
<path d="M185.012 58.3493L191.728 54.5154" stroke="#FEFCE6" stroke-miterlimit="10" stroke-linecap="round" stroke-linejoin="round"/>
<path d="M213.879 83.6261C215.219 87.0479 213.542 90.9069 210.125 92.2557C206.707 93.5982 202.854 91.9185 201.507 88.4966C200.166 85.0748 201.843 81.2158 205.261 79.8671C208.678 78.5245 212.538 80.2042 213.879 83.6261Z" fill="#FEFCE6"/>
<path d="M219.485 97.8941C220.027 99.2804 219.347 100.841 217.963 101.391C216.579 101.934 215.02 101.254 214.471 99.8673C213.928 98.4811 214.608 96.92 215.992 96.3706C217.377 95.8273 218.942 96.5079 219.485 97.8941Z" fill="#FEFCE6"/>
<path d="M87.9934 84.6814C86.634 88.097 88.2927 91.9684 91.7037 93.3296C95.1147 94.6909 98.981 93.0299 100.34 89.6143C101.7 86.1987 100.041 82.3273 96.63 80.9661C93.219 79.6048 89.3528 81.2658 87.9934 84.6814Z" fill="#FEFCE6"/>
<path d="M82.32 98.9244C81.7713 100.304 82.4447 101.878 83.8228 102.427C85.201 102.977 86.7724 102.303 87.3211 100.923C87.8699 99.5426 87.1964 97.969 85.8183 97.4195C84.4402 96.87 82.8688 97.5444 82.32 98.9244Z" fill="#FEFCE6"/>
<path fill-rule="evenodd" clip-rule="evenodd" d="M135.18 201.443C148.999 212.014 157.343 223.909 163.267 233.813C167.333 240.613 170.251 246.476 173.026 250.341C173.388 250.847 173.731 251.34 174.036 251.834C177.834 257.766 177.983 262.424 176.356 265.502C176.35 265.508 176.35 265.508 176.35 265.515C173.911 270.117 167.513 271.185 163.429 267.731C144.085 253.101 131.745 239.42 124.149 229.192C124.143 229.192 124.143 229.186 124.143 229.186C124.143 229.179 124.137 229.179 124.137 229.179C116.024 218.252 114.334 214.568 114.334 214.568C114.534 203.478 131.464 198.608 135.18 201.443Z" fill="#25343E"/>
<path fill-rule="evenodd" clip-rule="evenodd" d="M180.97 197.946L190.467 201.58C190.467 201.58 189.233 213.744 185.017 233.138C183.103 241.912 180.584 252.171 177.285 263.448C177.066 264.191 176.748 264.878 176.349 265.496C176.343 265.502 176.343 265.502 176.343 265.509C174.628 268.15 171.398 269.58 168.168 268.899L164.239 268.069C164.239 268.069 161.464 262.898 161.022 253.388C160.772 248.137 161.234 241.562 163.26 233.813C165.898 223.741 171.174 211.683 180.97 197.946Z" fill="#25343E"/>
<path fill-rule="evenodd" clip-rule="evenodd" d="M180.073 197.04L177.36 202.754L190.219 208.567L192.57 201.592L180.073 197.04Z" fill="#4D646D"/>
<path d="M90.0301 272.883L72.2641 273.526L62.8916 233.582C64.9557 235.798 67.107 237.934 69.3208 239.982C67.2629 242.979 66.5396 246.332 66.5396 246.332L72.289 273.333L90.0301 272.883Z" fill="#D3D3D3"/>
<path d="M136.632 230.416C136.438 232.576 136.195 234.855 135.896 237.253C135.896 237.266 135.89 237.272 135.89 237.278C135.815 237.865 135.728 238.502 135.628 239.195C135.615 239.251 135.609 239.314 135.603 239.37C134.056 249.554 129.535 269.692 129.367 270.448C129.367 270.454 129.361 270.466 129.361 270.473C129.361 270.473 129.28 270.516 129.005 270.404C128.413 270.292 127.827 270.173 127.241 270.048C107.404 265.958 89.2704 256.904 74.0799 244.172C72.4586 242.817 70.8747 241.418 69.3219 239.982C67.1082 237.934 64.9568 235.798 62.8927 233.582L57.9727 207.343C57.9727 207.343 94.8079 176.628 135.422 201.636C135.422 201.63 138.185 213.269 136.632 230.416Z" fill="#3B5362"/>
<path d="M136.675 230.471C136.675 230.471 136.488 232.925 135.895 237.252C135.895 237.265 135.889 237.271 135.889 237.277C135.808 237.883 135.721 238.52 135.627 239.194C135.615 239.251 135.608 239.313 135.602 239.369C134.056 249.554 129.535 269.691 129.366 270.447C129.366 270.453 129.36 270.466 129.36 270.472C129.242 270.447 129.123 270.428 129.005 270.403C128.412 270.291 127.826 270.172 127.24 270.047C107.522 265.914 89.2386 256.841 74.0792 244.171C72.4579 242.816 70.874 241.417 69.3213 239.981C71.7408 236.453 76.0061 233.418 83.115 236.909C96.2727 243.359 100.413 257.933 119.083 234.923C123.343 229.684 128.73 220.293 136.631 230.415C136.644 230.434 136.662 230.452 136.675 230.471Z" fill="black" fill-opacity="0.1"/>
<path d="M65.6162 225.057C65.6162 225.057 70.873 212.269 80.9377 218.982C90.9962 225.688 101.242 234.954 113.738 221.598C126.241 208.241 134.329 212.188 136.387 216.902" stroke="#6F9EB5" stroke-miterlimit="10"/>
<path d="M83.0156 195.411C83.0156 195.411 88.9335 208.948 102.434 209.017C117.506 209.092 121.117 195.036 121.117 195.036" stroke="#6F9EB5" stroke-miterlimit="10"/>
<path d="M90.9991 178.101L87.083 193.818C87.083 193.818 89.9764 203.672 103.845 203.896C103.845 203.896 116.067 203.116 117.159 193.581L113.523 179.369C113.523 179.369 97.9521 181.042 90.9991 178.101Z" fill="#FCD9C8"/>
<path d="M113.592 179.638C113.592 179.638 104.038 183.59 92.2275 180.743L117.159 193.581L113.592 179.638Z" fill="#F7E5E4"/>
<path d="M84.6384 134.773C106.426 120.786 126.805 140.48 130.871 157.708C130.871 157.708 136.421 180.225 110.885 187.593C85.343 194.961 76.9995 170.621 76.9995 170.621C76.9995 170.621 64.5277 147.686 84.6384 134.773Z" fill="#FCD9C8"/>
<path d="M95.3076 122.734C95.3076 122.734 109.201 117.57 119.459 129.59C129.711 141.61 130.977 138.65 133.309 138.151C133.309 138.151 124.903 153.88 101.4 141.061C101.4 141.061 106.825 148.117 115.038 149.003C115.038 149.003 103.801 156.503 93.4992 144.87C93.4992 144.87 94.7402 151.489 102.304 153.711C102.304 153.711 95.7878 159.931 84.6256 150.09C84.6256 150.09 86.1659 155.416 91.0548 159.481C91.0548 159.481 86.9266 160.486 82.4742 156.19C79.3002 159.818 77.8535 162.435 80.4663 176.628C71.8296 174.736 62.0268 154.23 70.6012 138.101C74.6607 130.458 82.7424 123.777 95.3076 122.734Z" fill="#8E6447"/>
<path d="M82.9933 169.297C82.9933 169.297 79.2081 164.789 75.0301 168.641C70.8583 172.494 76.3646 181.636 83.673 179.769L82.9933 169.297Z" fill="#FCD9C8"/>
<path d="M118.989 154.051L118.989 154.051L118.988 154.05C118.635 153.286 117.803 152.814 117.079 153.147C116.36 153.479 116.158 154.414 116.514 155.183C116.862 155.949 117.701 156.42 118.423 156.086C119.144 155.754 119.337 154.818 118.989 154.051Z" fill="black" stroke="black" stroke-width="0.5"/>
<path d="M97.7998 159.942L97.7998 159.942L97.7989 159.942C97.078 160.275 96.8852 161.211 97.2332 161.977C97.5814 162.744 98.414 163.214 99.1422 162.882C99.8718 162.549 100.056 161.611 99.7089 160.847C99.3607 160.079 98.5281 159.61 97.7998 159.942Z" fill="black" stroke="black" stroke-width="0.5"/>
<path d="M109.65 149.153C109.588 149.159 109.432 149.559 109.414 149.609C109.183 150.134 109.002 150.696 108.865 151.258C108.447 153.037 108.821 154.817 109.432 156.503C109.588 156.934 109.756 157.795 110.112 158.114C110.212 158.201 110.461 157.595 110.492 157.539C110.723 157.121 111.01 156.74 111.39 156.446C112.856 155.335 114.564 156.303 115.126 157.889C115.656 159.375 114.845 160.88 113.38 161.379C113.086 161.479 111.964 161.442 111.783 161.66C111.609 161.879 111.739 162.497 111.758 162.747C111.833 163.865 112.095 164.932 112.556 165.95" stroke="black" stroke-width="0.5" stroke-miterlimit="10" stroke-linecap="round" stroke-linejoin="round"/>
<path d="M113.759 170C113.011 172.473 110.292 173.665 107.829 172.96C106.257 172.51 105.01 171.424 104 170.181" stroke="black" stroke-width="0.5" stroke-miterlimit="10" stroke-linecap="round" stroke-linejoin="round"/>
<path d="M99.2241 154.042C97.1102 154.086 95.0149 155.422 93.5059 156.809" stroke="black" stroke-width="0.5" stroke-miterlimit="10" stroke-linecap="round" stroke-linejoin="round"/>
<path d="M112.135 150.061C112.621 150.103 113.429 149.729 113.944 149.68C115.335 149.553 116.743 149.662 118.106 150.091" stroke="black" stroke-width="0.5" stroke-miterlimit="10" stroke-linecap="round" stroke-linejoin="round"/>
<path opacity="0.2" d="M122.502 142.035C122.502 142.035 116.092 125.094 90.6807 126.343C90.6807 126.343 111.01 128.11 122.502 142.035Z" fill="#FAFDFF"/>
<path d="M118.431 257.478C119.771 258.015 121.281 257.366 121.817 256.023L126.107 245.221C126.363 245.146 126.65 245.058 126.918 244.946C129.244 243.947 130.335 241.225 129.337 238.889C128.339 236.56 125.621 235.467 123.288 236.466C120.962 237.466 119.871 240.188 120.869 242.523C120.987 242.798 121.1 243.067 121.268 243.285L116.947 254.1C116.41 255.436 117.059 256.954 118.431 257.478ZM118.431 257.478C119.771 258.015 121.281 257.366 121.817 256.023L126.107 245.221C126.363 245.146 126.65 245.058 126.918 244.946C129.244 243.947 130.335 241.225 129.337 238.889C128.339 236.56 125.621 235.467 123.288 236.466C120.962 237.466 119.871 240.188 120.869 242.523C120.987 242.798 121.1 243.067 121.268 243.285L116.947 254.1C116.41 255.436 117.059 256.954 118.431 257.478Z" fill="#A88352"/>
<path d="M127.954 237.085C127.343 238.171 126.65 239.47 126.388 240.625C126.052 242.099 125.958 243.46 125.827 244.915L125.684 246.339L126.114 245.258L126.307 245.208L126.32 244.99C126.42 243.547 126.557 242.199 126.875 240.775C127.099 239.713 127.729 238.508 128.322 237.466C128.203 237.334 128.047 237.222 127.954 237.085ZM122.441 254.394L122.928 253.182C122.921 252.751 122.934 252.283 122.959 251.665C123.034 249.91 122.99 248.393 122.934 247.088C122.84 244.44 122.797 242.667 123.944 241.424C124.605 240.713 124.792 240.737 124.792 240.737C125.104 240.962 124.73 243.348 124.574 244.234L123.62 249.948C123.582 250.11 123.676 250.247 123.826 250.254C123.944 250.272 124.031 250.235 124.1 250.135C124.131 250.123 124.119 250.091 124.137 250.048L125.091 244.334C125.54 241.705 125.621 240.556 125.035 240.275C124.661 240.076 124.237 240.332 123.545 241.056C122.254 242.467 122.298 244.422 122.41 247.1C122.447 248.443 122.51 249.923 122.422 251.646C122.366 252.957 122.373 253.813 122.441 254.394ZM120.764 256.654L120.726 257.316C120.957 257.185 121.144 257.029 121.312 256.848C121.319 256.773 121.306 256.741 121.319 256.698C121.493 254.512 121.655 252.214 121.587 250.884C121.537 250.51 121.525 250.16 121.493 249.742C121.263 246.688 120.926 242.317 124.193 238.658L123.133 239.114C122.173 240.456 121.587 241.855 121.244 243.223L121.281 243.316L121.125 243.703C120.683 245.933 120.839 248.056 120.976 249.792C120.994 250.179 121.051 250.547 121.057 250.903C121.113 252.202 120.932 254.469 120.764 256.654ZM129.307 238.902C129.188 238.702 129.107 238.521 129.001 238.352C127.586 240.569 127.305 242.667 127.131 244.852C127.343 244.759 127.542 244.64 127.71 244.534C127.879 242.598 128.178 240.787 129.307 238.902ZM120.521 240.956C120.67 240.638 120.82 240.325 121.019 240.026L120.533 240.232C120.489 240.463 120.489 240.719 120.521 240.956ZM118.731 257.597C118.905 257.666 119.093 257.691 119.273 257.691C119.28 256.866 119.255 256.048 119.236 255.343C119.124 252.989 118.581 251.971 118.001 251.534L117.795 252.052C118.313 252.508 118.631 253.663 118.706 255.355C118.712 256.136 118.743 256.873 118.731 257.597ZM117.085 256.336C117.259 256.654 117.534 256.966 117.845 257.191C117.646 256.061 117.272 255.18 116.798 254.737C116.76 255.074 116.773 255.43 116.873 255.742C116.941 255.93 117.022 256.111 117.085 256.336ZM120.115 257.578C120.19 254.319 120.072 250.784 119.941 247.3L119.922 246.663L119.435 247.875C119.542 250.553 119.666 254.188 119.579 257.666C119.76 257.659 119.922 257.622 120.115 257.578Z" fill="#AF8B58"/>
<path d="M120.501 255.549L124.791 244.746C125.047 244.671 125.334 244.584 125.602 244.471C127.928 243.472 129.019 240.75 128.021 238.415C127.622 237.478 126.943 236.729 126.12 236.223C125.172 236.017 124.199 236.079 123.257 236.485C120.931 237.484 119.84 240.207 120.838 242.542C120.956 242.817 121.068 243.085 121.237 243.304L116.947 254.106C116.498 255.23 116.884 256.467 117.782 257.154C118.911 257.266 120.04 256.642 120.501 255.549Z" fill="#BC915B"/>
<path d="M128.272 241.249C128.391 240.694 128.44 240.138 128.341 239.57C127.786 240.775 127.505 241.968 127.337 243.154C127.686 242.717 127.966 242.205 128.16 241.655L128.272 241.249ZM118.75 257.054C118.912 257.016 119.093 256.941 119.28 256.866C119.267 256.336 119.255 255.805 119.236 255.343C119.124 252.989 118.582 251.971 118.002 251.534L117.796 252.052C118.313 252.508 118.631 253.663 118.706 255.355C118.7 255.93 118.737 256.523 118.75 257.054ZM117.072 256.229C117.247 256.548 117.49 256.873 117.802 257.097C117.815 257.129 117.846 257.116 117.846 257.116C117.627 256.023 117.253 255.149 116.792 254.737C116.754 255.074 116.767 255.43 116.867 255.742L117.072 256.229ZM127.599 237.665C127.069 238.608 126.563 239.682 126.333 240.644C126.052 241.911 125.921 243.117 125.803 244.347C126.015 244.253 126.214 244.134 126.383 244.028C126.489 242.942 126.613 241.886 126.881 240.769C127.075 239.969 127.468 239.045 127.929 238.202C127.811 238.002 127.736 237.821 127.599 237.665ZM119.573 256.629C119.773 256.51 119.947 256.329 120.103 256.117C120.153 253.301 120.066 250.254 119.941 247.3L119.922 246.663L119.436 247.875C119.542 250.297 119.654 253.476 119.573 256.629ZM120.521 240.956C120.671 240.638 120.82 240.325 121.02 240.026L120.533 240.232C120.49 240.463 120.49 240.719 120.521 240.956ZM121.014 250.884C121.095 251.746 121.032 253.026 120.939 254.394L121.562 252.839C121.593 252.071 121.618 251.384 121.575 250.859C121.525 250.485 121.512 250.135 121.481 249.717C121.25 246.663 120.914 242.292 124.181 238.633L123.09 239.101C122.13 240.444 121.544 241.843 121.201 243.21L121.238 243.304L121.082 243.691C120.639 245.92 120.795 248.043 120.932 249.779C120.951 250.16 121.007 250.528 121.014 250.884ZM122.398 247.1C122.442 248.118 122.46 249.261 122.448 250.553L122.984 249.211C122.984 248.455 122.965 247.75 122.934 247.082C122.841 244.434 122.797 242.661 123.944 241.418C124.605 240.706 124.792 240.731 124.792 240.731C125.104 240.956 124.73 243.341 124.574 244.228L124.281 245.964L124.78 244.709L125.036 244.634L125.086 244.328C125.535 241.699 125.616 240.55 125.029 240.269C124.655 240.069 124.231 240.325 123.539 241.05C122.242 242.473 122.292 244.422 122.398 247.1Z" fill="#C49B62"/>
<path d="M143.837 220.163C146.842 227.187 143.593 235.317 136.578 238.327C129.563 241.337 121.444 238.084 118.438 231.059C115.432 224.034 118.681 215.904 125.696 212.894C132.706 209.885 140.831 213.138 143.837 220.163Z" fill="#C2E5F6"/>
<path d="M118.438 231.065C120.072 234.88 123.227 237.578 126.888 238.764C123.963 237.366 121.543 234.968 120.165 231.758C117.16 224.733 120.408 216.603 127.424 213.594C130.629 212.22 134.034 212.151 137.114 213.163C133.647 211.496 129.507 211.271 125.696 212.901C118.681 215.904 115.432 224.04 118.438 231.065Z" fill="#B3D3E3"/>
<path d="M115.414 232.358C119.13 241.05 129.195 245.077 137.875 241.356C146.556 237.634 150.578 227.556 146.861 218.864C143.145 210.172 133.08 206.144 124.4 209.866C115.719 213.594 111.691 223.672 115.414 232.358ZM118.737 230.934C115.807 224.09 118.987 216.135 125.821 213.2C132.656 210.265 140.6 213.45 143.531 220.294C146.462 227.137 143.282 235.093 136.447 238.027C129.613 240.956 121.668 237.778 118.737 230.934ZM115.414 232.358C119.13 241.05 129.195 245.077 137.875 241.356C146.556 237.634 150.578 227.556 146.861 218.864C143.145 210.172 133.08 206.144 124.4 209.866C115.719 213.594 111.691 223.672 115.414 232.358ZM118.737 230.934C115.807 224.09 118.987 216.135 125.821 213.2C132.656 210.265 140.6 213.45 143.531 220.294C146.462 227.137 143.282 235.093 136.447 238.027C129.613 240.956 121.668 237.778 118.737 230.934Z" fill="black"/>
<path fill-rule="evenodd" clip-rule="evenodd" d="M80.6722 217.821C78.5021 235.099 72.4346 248.306 66.866 258.409C63.0434 265.346 59.4515 270.829 57.5059 275.168C57.2503 275.737 56.9946 276.28 56.7265 276.792C53.515 283.061 49.5739 285.534 46.1006 285.677C46.0943 285.671 46.0943 285.671 46.0881 285.677C40.8874 285.883 36.7468 280.882 37.6759 275.612C40.5693 251.509 46.1691 233.95 51.1765 222.23C51.1765 222.223 51.1828 222.223 51.1828 222.223C51.189 222.223 51.189 222.217 51.189 222.217C56.5394 209.697 57.9799 207.343 57.9799 207.343C67.6392 201.942 81.2583 213.182 80.6722 217.821Z" fill="#3B5362"/>
<path fill-rule="evenodd" clip-rule="evenodd" d="M106.732 255.692L108.372 265.739C108.372 265.739 97.2539 270.791 78.3966 276.898C69.866 279.658 59.7389 282.636 48.346 285.459C47.5915 285.646 46.8432 285.709 46.1073 285.677C46.1011 285.671 46.1011 285.671 46.0949 285.677C42.9457 285.521 40.096 283.448 39.0546 280.307L37.7949 276.492C37.7949 276.492 40.863 271.49 48.8511 266.32C53.2599 263.466 59.1652 260.55 66.8727 258.409C76.8813 255.624 89.9454 254.125 106.732 255.692Z" fill="#3B5362"/>
<path fill-rule="evenodd" clip-rule="evenodd" d="M106.957 255.761C106.957 255.761 113.23 250.816 119.192 241C120.277 239.214 123.613 238.652 117.864 249.61C117.864 249.61 120.745 248.468 123.339 248.224C124.748 248.093 126.407 250.485 124.243 252.377C124.243 252.377 128.034 253.657 125.39 257.203C125.39 257.203 128.876 259.401 125.746 262.324C125.746 262.324 117.676 267.719 108.485 265.895L106.957 255.761Z" fill="#FCD9C8"/>
<path fill-rule="evenodd" clip-rule="evenodd" d="M107.057 254.456L100.765 254.981L102.218 269.036L109.42 267.563L107.057 254.456Z" fill="#668591"/>
<path d="M124.549 252.289C124.549 252.283 124.237 252.421 124.219 252.433C124 252.533 123.782 252.62 123.558 252.708C122.878 252.964 122.173 253.051 121.456 253.001" stroke="#FCD9C8" stroke-miterlimit="10" stroke-linecap="round" stroke-linejoin="round"/>
<path d="M125.472 257.303C125.422 257.378 124.854 257.503 124.736 257.547C123.994 257.815 123.221 257.997 122.447 258.134" stroke="#FCD9C8" stroke-miterlimit="10" stroke-linecap="round" stroke-linejoin="round"/>
<path fill-rule="evenodd" clip-rule="evenodd" d="M78.4023 276.892L78.3898 276.898C69.8592 279.658 59.7321 282.636 48.3392 285.459C47.5847 285.646 46.8364 285.708 46.1006 285.677C46.0943 285.671 46.0943 285.671 46.0881 285.677C40.8874 285.883 36.7468 280.882 37.6759 275.611C40.5693 251.509 46.1691 233.95 51.1765 222.229C51.1765 222.223 51.1828 222.223 51.1828 222.223C46.3936 241.73 47.6408 258.14 48.8443 266.326C49.3681 269.904 49.8857 271.909 49.8857 271.909C51.507 274.3 53.9453 275.843 56.7265 276.804C65.756 279.914 78.4023 276.892 78.4023 276.892Z" fill="black" fill-opacity="0.1"/>
<path d="M252.814 164.633C244.982 160.568 238.802 153.974 234.961 146.018C229.86 135.434 222.676 129.634 222.676 129.634C222.676 129.634 193.505 128.297 193.193 142.684C192.894 156.759 202.248 170.327 178.682 188.823C179.169 197.671 180.054 207.069 176.924 215.561C175.228 220.163 171.979 224.428 171.43 229.392C171.181 231.633 171.405 233.919 171.368 236.173C171.343 237.422 171.268 238.664 171.262 239.907C171.966 241.237 172.434 241.986 172.434 241.986C184.75 265.946 212.157 263.454 212.157 263.454C203.164 266.526 196.991 265.34 196.991 265.34C226.449 272.952 243.673 256.098 243.673 256.098C243.673 256.098 235.023 267.962 216.653 273.114C286.912 268.862 251.76 188.723 261.276 205.164C270.799 221.605 259.293 259.832 259.293 259.832C277.883 219.669 262.23 192.051 262.23 192.051C282.017 209.566 263.958 258.964 263.958 258.964C285.721 246.232 285.771 234.843 285.771 234.843C286.606 242.492 285.391 246.588 285.391 246.588C302.751 203.572 268.566 178.32 268.566 178.32C302.77 198.97 291.234 238.914 291.234 238.914C305.233 198.058 276.891 177.121 252.814 164.633Z" fill="#C8615A"/>
<g opacity="0.5">
<path opacity="0.5" d="M215.337 129.939C215.393 129.933 215.443 129.983 215.418 130.039C215.399 130.089 215.375 130.133 215.343 130.177L215.162 130.433C215.032 130.601 214.944 130.782 214.919 130.989C214.844 131.394 214.82 131.813 214.801 132.225C214.776 133.055 214.788 133.886 214.857 134.716C214.982 136.371 215.262 138.013 215.636 139.631C216.372 142.871 217.482 146.012 218.723 149.091C219.958 152.175 221.33 155.21 222.646 158.276C223.974 161.336 225.271 164.408 226.512 167.505C227.728 170.615 228.925 173.743 229.892 176.946C230.422 178.532 230.833 180.162 231.288 181.773C231.5 182.585 231.675 183.403 231.868 184.221C232.062 185.039 232.249 185.857 232.386 186.681L232.835 189.16L233.159 191.664L233.315 192.913L233.396 194.174C233.446 195.017 233.515 195.854 233.552 196.697C233.533 198.383 233.621 200.069 233.452 201.748C233.384 202.591 233.359 203.434 233.253 204.271L232.891 206.775C230.727 220.119 222.733 232.351 211.465 239.713L209.319 241.043C208.596 241.468 207.835 241.83 207.093 242.224C206.719 242.417 206.351 242.617 205.971 242.798L204.811 243.291C204.031 243.604 203.277 243.978 202.479 244.24C199.323 245.408 196.018 246.108 192.688 246.482C191.011 246.563 189.34 246.707 187.669 246.626C185.997 246.576 184.326 246.432 182.674 246.182C179.387 245.683 176.064 244.728 173.376 242.723C174.748 243.672 176.282 244.347 177.86 244.84C179.437 245.339 181.077 245.645 182.717 245.852C184.364 246.051 186.016 246.145 187.675 246.151C189.334 246.182 190.98 245.995 192.626 245.87C195.894 245.433 199.13 244.696 202.204 243.497C202.984 243.229 203.72 242.848 204.48 242.53L205.609 242.03C205.977 241.843 206.339 241.643 206.7 241.449C207.418 241.05 208.16 240.681 208.864 240.257L210.941 238.92C216.372 235.199 221.099 230.422 224.647 224.871C226.418 222.098 227.977 219.176 229.106 216.085L229.555 214.936L229.917 213.756L230.64 211.396C230.852 210.603 231.008 209.791 231.195 208.992C231.376 208.186 231.569 207.387 231.663 206.569L232.031 204.127C232.137 203.309 232.168 202.485 232.236 201.667C232.411 200.025 232.33 198.376 232.361 196.728C232.33 195.904 232.267 195.08 232.218 194.262L232.143 193.025L231.993 191.795L231.694 189.335L231.263 186.893C231.133 186.075 230.952 185.27 230.765 184.464C230.578 183.659 230.409 182.847 230.203 182.048C229.761 180.449 229.368 178.844 228.85 177.265C227.896 174.093 226.755 170.964 225.608 167.848C224.423 164.745 223.182 161.654 221.91 158.576C220.65 155.497 219.322 152.438 218.143 149.309C216.977 146.181 215.948 142.984 215.3 139.699C214.969 138.063 214.726 136.402 214.657 134.729C214.62 133.892 214.645 133.055 214.695 132.225C214.726 131.807 214.77 131.388 214.857 130.982C214.882 130.776 214.988 130.576 215.125 130.42L215.318 130.177C215.35 130.133 215.375 130.089 215.393 130.046C215.443 129.989 215.393 129.939 215.337 129.939Z" fill="#C8615A"/>
</g>
<g opacity="0.5">
<path opacity="0.5" d="M210.511 129.827C210.025 131.276 209.682 132.768 209.52 134.286C209.376 135.803 209.383 137.327 209.514 138.838C209.669 140.349 209.931 141.847 210.268 143.334C210.624 144.813 211.029 146.281 211.484 147.736C213.324 153.555 215.232 159.369 217.04 165.22C218.849 171.064 220.457 176.996 221.636 183.022C222.796 189.048 223.532 195.205 223.313 201.386C223.052 207.549 221.73 213.756 218.936 219.314C217.552 222.086 215.812 224.684 213.798 227.038C213.28 227.612 212.769 228.193 212.239 228.761L210.567 230.378C209.389 231.39 208.179 232.37 206.876 233.207C201.719 236.629 195.664 238.696 189.503 238.989C183.36 239.276 177.118 237.928 171.812 234.874C182.706 240.55 196.474 239.358 206.333 232.414C208.815 230.709 211.035 228.655 212.974 226.338C214.92 224.04 216.591 221.512 217.919 218.808C220.595 213.407 221.842 207.368 222.066 201.336C222.316 195.286 221.636 189.21 220.52 183.234C219.404 177.246 217.782 171.364 216.124 165.488C214.434 159.619 212.625 153.78 210.898 147.904C210.493 146.424 210.125 144.932 209.813 143.427C209.52 141.916 209.302 140.393 209.189 138.863C209.102 137.327 209.139 135.784 209.333 134.261C209.557 132.737 209.963 131.251 210.511 129.827Z" fill="#C8615A"/>
</g>
<g opacity="0.5">
<path opacity="0.5" d="M219.122 128.753C219.328 128.916 219.247 129.203 219.153 129.403C219.054 129.615 218.929 129.815 218.829 130.027C218.717 130.233 218.692 130.464 218.648 130.695L218.542 131.388C218.418 132.312 218.355 133.249 218.343 134.179C218.312 136.046 218.499 137.907 218.823 139.737C219.478 143.408 220.756 146.936 222.321 150.308C225.433 157.09 229.723 163.234 233.764 169.534C237.861 175.81 241.422 182.491 244.109 189.528C246.766 196.566 248.531 204.028 248.587 211.627C248.612 219.239 246.398 226.788 242.513 233.282C238.609 239.782 233.147 245.283 226.817 249.386C220.482 253.476 213.323 256.292 205.884 257.435C202.161 257.959 198.388 258.078 194.647 257.778C190.917 257.472 187.182 256.779 183.728 255.337C185.474 256.005 187.288 256.467 189.122 256.804C190.955 257.141 192.807 257.347 194.671 257.453C198.388 257.66 202.13 257.447 205.79 256.835C213.111 255.586 220.132 252.708 226.287 248.593C232.411 244.44 237.768 239.083 241.534 232.714C245.294 226.357 247.396 219.02 247.34 211.639C247.321 204.24 245.631 196.89 243.049 189.941C240.443 182.972 236.913 176.384 232.96 170.059C229.031 163.721 224.797 157.47 221.766 150.571C220.27 147.13 219.066 143.527 218.499 139.805C218.212 137.951 218.075 136.065 218.156 134.186C218.199 133.249 218.293 132.312 218.449 131.388L218.574 130.695C218.617 130.47 218.655 130.227 218.779 130.021C218.892 129.815 219.016 129.615 219.122 129.409C219.235 129.197 219.322 128.916 219.122 128.753Z" fill="#C8615A"/>
</g>
<g opacity="0.5">
<path opacity="0.5" d="M246.049 198.452C246.098 198.408 246.18 198.433 246.204 198.495C246.236 198.551 246.248 198.608 246.261 198.67L246.323 199.032C246.348 199.27 246.491 199.476 246.585 199.7C246.797 200.138 246.99 200.581 247.215 201.012L248.543 203.603C249.428 205.326 250.32 207.056 251.156 208.817C252.802 212.339 254.249 215.992 255.215 219.788C256.207 223.578 256.681 227.525 256.581 231.465C256.469 235.405 255.777 239.301 254.754 243.079C253.7 246.857 252.297 250.566 250.208 253.944C248.1 257.297 245.3 260.195 242.114 262.499C238.909 264.784 235.373 266.52 231.762 267.963C228.127 269.361 224.429 270.541 220.706 271.634C224.335 270.267 227.996 268.974 231.525 267.394C235.055 265.833 238.472 264.004 241.534 261.712C244.558 259.377 247.227 256.586 249.198 253.326C251.174 250.073 252.54 246.451 253.55 242.755C254.585 239.052 255.253 235.255 255.409 231.427C255.571 227.6 255.134 223.766 254.274 220.019C253.407 216.273 252.104 212.626 250.601 209.061C249.859 207.275 249.048 205.514 248.25 203.74L247.046 201.087C246.847 200.643 246.685 200.187 246.498 199.738C246.423 199.513 246.286 199.295 246.273 199.039L246.236 198.676C246.229 198.614 246.217 198.558 246.192 198.502C246.173 198.439 246.098 198.414 246.049 198.452Z" fill="#C8615A"/>
</g>
<g opacity="0.5">
<path opacity="0.5" d="M224.902 155.553C225.183 156.153 225.513 156.74 225.844 157.308C226.218 157.858 226.605 158.401 227.01 158.925C227.814 159.987 228.681 160.992 229.585 161.96C231.406 163.89 233.421 165.632 235.603 167.118C239.968 170.109 244.895 172.176 249.802 174.193C254.722 176.197 259.705 178.245 264.263 181.149C264.831 181.517 265.379 181.904 265.941 182.279C266.496 182.66 267.019 183.091 267.562 183.496C268.622 184.333 269.601 185.276 270.617 186.157C271.091 186.637 271.547 187.137 272.014 187.63C272.463 188.136 272.968 188.592 273.374 189.135L274.627 190.734L275.257 191.533L275.812 192.382C278.818 196.884 280.9 201.973 282.085 207.231C283.22 212.501 283.576 217.927 283.177 223.285L283.114 224.29L283.002 225.289L282.771 227.287C282.597 228.617 282.347 229.935 282.129 231.259C281.574 233.888 280.969 236.479 280.258 239.058C279.547 241.637 278.624 244.197 277.259 246.507C275.905 248.83 274.209 250.903 272.476 252.92C273.293 251.865 274.11 250.809 274.858 249.717C275.619 248.63 276.348 247.513 276.972 246.345C278.244 244.016 279.055 241.487 279.672 238.902C279.99 237.615 280.289 236.317 280.576 235.018C280.863 233.719 281.094 232.414 281.362 231.115C281.549 229.804 281.767 228.493 281.911 227.181L282.098 225.202L282.191 224.215L282.229 223.222C282.472 217.94 282.154 212.626 280.988 207.481C279.79 202.348 277.726 197.427 274.789 193.081L274.253 192.257L273.648 191.483L272.445 189.928C272.058 189.397 271.565 188.954 271.135 188.461C270.686 187.98 270.25 187.493 269.794 187.024C268.809 186.163 267.867 185.239 266.845 184.421C266.321 184.027 265.816 183.603 265.28 183.228C264.737 182.86 264.201 182.479 263.652 182.116C259.237 179.238 254.298 177.233 249.428 175.085C244.552 172.956 239.619 170.771 235.248 167.624C233.084 166.031 231.107 164.195 229.342 162.191C228.463 161.186 227.621 160.137 226.86 159.044C226.48 158.495 226.112 157.933 225.769 157.364C225.451 156.765 225.152 156.165 224.902 155.553Z" fill="#C8615A"/>
</g>
<g opacity="0.5">
<path opacity="0.5" d="M271.378 187.717L271.602 188.136C271.696 188.311 271.802 188.467 271.914 188.629L272.581 189.591C273.018 190.234 273.442 190.89 273.854 191.558C274.683 192.888 275.431 194.274 276.017 195.748C277.19 198.689 277.732 201.842 277.988 204.97C278.119 206.538 278.2 208.105 278.219 209.672L278.237 212.033L278.162 214.387C278 217.521 277.701 220.656 277.202 223.753C276.242 229.954 274.683 236.054 272.581 241.961C271.534 244.915 270.299 247.8 268.952 250.622C267.53 253.407 266.003 256.148 264.213 258.708C265.766 255.998 267.169 253.22 268.397 250.366C269.607 247.5 270.704 244.596 271.665 241.643C272.594 238.683 273.486 235.711 274.172 232.682C274.558 231.177 274.851 229.654 275.182 228.143L275.6 225.857L275.805 224.715L275.974 223.566C276.959 217.44 277.339 211.246 277.021 205.045C276.853 201.961 276.454 198.882 275.45 195.966C274.963 194.505 274.315 193.1 273.573 191.733C273.205 191.046 272.818 190.371 272.425 189.703L271.839 188.692C271.74 188.523 271.64 188.348 271.565 188.173L271.446 187.905L271.39 187.767L271.365 187.699C271.347 187.636 271.372 187.711 271.378 187.717Z" fill="#C8615A"/>
</g>
<g opacity="0.5">
<path opacity="0.5" d="M201.488 132.3C202.835 134.573 204.107 136.902 205.161 139.337C206.271 141.748 207.162 144.252 207.954 146.787C209.463 151.876 210.411 157.152 210.692 162.472C210.954 167.792 210.555 173.144 209.576 178.389C209.345 179.7 209.002 181.005 208.715 182.316C208.322 183.515 208.179 184.814 207.861 186.144C207.705 186.806 207.518 187.468 207.274 188.117C207.038 188.773 206.707 189.397 206.42 189.972C205.834 191.14 205.329 192.32 204.917 193.55L204.905 193.594L204.886 193.631C203.333 196.547 201.55 199.338 199.536 201.955C197.503 204.558 195.239 206.975 192.776 209.167C190.313 211.352 187.656 213.325 184.807 214.968C181.963 216.616 178.964 217.99 175.846 218.983C178.889 217.784 181.813 216.316 184.557 214.555C187.289 212.788 189.876 210.796 192.24 208.573C194.609 206.351 196.761 203.909 198.694 201.311C200.646 198.726 202.379 195.973 203.876 193.094L203.839 193.181C204.256 191.901 204.78 190.646 205.366 189.447C205.666 188.835 205.946 188.286 206.158 187.699C206.376 187.112 206.545 186.5 206.682 185.869C206.969 184.627 207.106 183.284 207.518 181.954C207.805 180.687 208.147 179.438 208.384 178.145C209.395 173.006 209.831 167.749 209.619 162.51C209.395 157.277 208.665 152.044 207.287 146.968C206.551 144.445 205.797 141.916 204.799 139.481C203.857 137.021 202.685 134.654 201.488 132.3Z" fill="#C8615A"/>
</g>
<g opacity="0.5">
<path opacity="0.5" d="M209.794 165.051C209.432 169.509 208.59 173.962 207.125 178.226C205.641 182.479 203.62 186.581 200.951 190.247L199.941 191.614L198.862 192.925L198.32 193.581L197.746 194.205L196.592 195.448C194.971 197.022 193.319 198.57 191.492 199.894C187.918 202.641 183.902 204.814 179.662 206.232C183.722 204.365 187.482 201.948 190.893 199.126C192.614 197.74 194.217 196.21 195.751 194.63C197.235 193 198.7 191.346 199.947 189.528C200.627 188.661 201.182 187.705 201.799 186.794C202.354 185.838 202.941 184.902 203.439 183.921L204.206 182.454C204.456 181.96 204.674 181.455 204.911 180.955C205.391 179.962 205.778 178.926 206.214 177.902C207.805 173.762 208.952 169.447 209.794 165.051Z" fill="#C8615A"/>
</g>
<path d="M235.69 192.357C234.088 198.52 233.601 208.836 232.354 219.132C231.568 225.608 231.107 234.062 230.839 242.311C214.694 256.479 195.02 266.414 173.394 270.466C173.294 270.086 173.194 269.698 173.107 269.317C173.101 269.311 173.101 269.299 173.101 269.292C172.29 266.014 171.629 262.749 171.099 259.514C170.251 254.356 169.727 249.273 169.453 244.34C167.707 212.601 176.425 187.049 176.425 187.049C207.174 177.383 235.69 192.357 235.69 192.357Z" fill="#95C8AC"/>
<path opacity="0.5" d="M235.69 192.357L232.528 240.8C231.973 241.306 231.406 241.812 230.838 242.311C214.694 256.479 195.02 266.414 173.394 270.466C173.45 270.698 173.506 270.922 173.568 271.153C173.512 270.954 173.45 270.722 173.387 270.473C173.344 270.304 173.3 270.117 173.25 269.923C173.207 269.73 173.157 269.53 173.107 269.318C173.101 269.311 173.101 269.299 173.101 269.293C172.539 266.876 171.81 263.254 171.099 259.514C169.708 252.215 168.361 244.478 168.361 244.478C168.729 244.434 169.091 244.384 169.453 244.341C213.166 238.359 235.69 192.357 235.69 192.357Z" fill="black" fill-opacity="0.1"/>
<path d="M211.746 184.895C209.445 190.465 199.96 199.394 192.645 196.99C185.836 194.761 186.104 184.62 186.104 184.62C189.627 183.784 187.788 179.65 186.584 176.365C191.685 177.346 206.801 176.365 206.801 176.365C206.801 176.365 206.782 176.434 206.751 176.54C206.346 177.995 205.915 179.263 205.803 180.368C205.597 182.578 206.664 184.096 211.746 184.895Z" fill="#EFC4B6"/>
<path d="M192.126 197.013C192.126 197.013 201.649 198.513 211.741 184.889C222.28 192.882 204.177 210.724 192.126 197.013Z" fill="white"/>
<path d="M192.571 197.047C192.571 197.047 187.201 195.268 186.165 184.6C175.531 188.028 179.328 203.366 192.571 197.047Z" fill="white"/>
<path d="M197.864 199.538C197.864 199.538 204.954 202.079 210.442 196.197C213.822 192.569 211.833 187.324 211.833 187.324" stroke="#9BD3F2" stroke-miterlimit="10" stroke-linecap="round" stroke-linejoin="round"/>
<path d="M184.394 187.037C184.394 187.037 180.715 189.753 182.068 193.487C182.698 195.211 183.802 197.64 188.778 196.616" stroke="#9BD3F2" stroke-miterlimit="10" stroke-linecap="round" stroke-linejoin="round"/>
<path d="M206.752 176.547C206.589 177.165 206.046 179.225 205.809 180.374C205.809 180.374 205.809 180.374 205.803 180.374C205.915 179.269 206.346 177.995 206.752 176.547Z" fill="#EFC4B6"/>
<path d="M205.802 180.374C205.49 180.474 193.91 184.04 187.581 177.752C187.581 177.752 198.943 179.381 206.8 176.372C206.8 176.372 206.781 176.44 206.75 176.547" fill="#EFC4B6"/>
<path d="M186.57 127.523C178.519 129.802 169.446 148.654 170.637 159.181C171.828 169.709 177.397 177.121 191.384 178.308C205.371 179.494 220.855 173.05 221.478 158.214C222.039 144.944 221.229 117.701 186.57 127.523Z" fill="#EFC4B6"/>
<path d="M180.697 148.454C180.697 147.697 180.141 147.042 179.399 147.042C178.658 147.042 178.102 147.697 178.102 148.454C178.102 149.21 178.658 149.865 179.399 149.865C180.141 149.865 180.697 149.21 180.697 148.454Z" fill="black" stroke="black" stroke-width="0.5"/>
<path d="M199.977 150.452C199.977 149.696 199.421 149.041 198.679 149.041C197.937 149.041 197.382 149.703 197.382 150.452C197.382 151.209 197.938 151.864 198.679 151.864C199.421 151.864 199.977 151.209 199.977 150.452Z" fill="black" stroke="black" stroke-width="0.5"/>
<path d="M197.826 143.97C197.77 143.939 197.957 143.952 198.019 143.945C198.15 143.939 198.281 143.945 198.412 143.958C198.817 144.002 199.229 144.07 199.628 144.17C200.819 144.476 201.929 145.001 202.952 145.675" stroke="black" stroke-width="0.5" stroke-miterlimit="10" stroke-linecap="round" stroke-linejoin="round"/>
<path d="M183.709 141.548C183.715 141.541 183.334 141.342 183.309 141.335C183.016 141.21 182.705 141.117 182.393 141.036C181.401 140.773 180.435 140.736 179.493 141.179" stroke="black" stroke-width="0.5" stroke-miterlimit="10" stroke-linecap="round" stroke-linejoin="round"/>
<path d="M187.991 142.047C187.929 141.997 188.091 142.16 188.128 142.228C188.209 142.378 188.259 142.547 188.303 142.709C188.434 143.177 188.515 143.664 188.571 144.152C188.727 145.419 188.552 146.699 188.322 147.948C188.259 148.298 188.241 148.922 188.004 149.209C187.879 149.365 186.962 148.242 186.813 148.129C185.777 147.342 184.1 147.43 183.582 148.772C183.04 150.171 183.907 152.138 185.434 152.413C185.796 152.475 186.183 152.45 186.532 152.344C186.613 152.319 186.887 152.182 186.975 152.244C187.099 152.338 186.95 153.043 186.937 153.174C186.837 154.136 186.694 155.185 185.983 155.897" stroke="black" stroke-width="0.5" stroke-miterlimit="10" stroke-linecap="round" stroke-linejoin="round"/>
<path d="M186.137 160.014C186.156 159.951 186.069 160.12 186.056 160.182C186.025 160.313 186.013 160.451 186.007 160.582C185.982 161.013 186.031 161.431 186.1 161.856C186.306 163.055 186.961 164.372 188.22 164.741C191.001 165.559 192.598 162.293 193.159 160.157" stroke="black" stroke-width="0.5" stroke-miterlimit="10" stroke-linecap="round" stroke-linejoin="round"/>
<path fill-rule="evenodd" clip-rule="evenodd" d="M222.707 128.934C211.189 114.285 169.54 119.281 166.029 144.689C166.029 144.689 168.823 139.968 173.4 134.735C173.4 134.735 172.115 136.852 170.083 143.246C170.083 143.246 176.312 145.019 179.773 143.19C179.773 143.19 182.255 135.26 185.442 129.927C185.442 129.927 181.875 140.236 182.567 143.777C182.567 143.777 186.495 133.805 188.404 132.063C188.404 132.063 185.959 142.334 186.77 143.989C186.77 143.989 191.783 134.51 195.531 130.583C195.531 130.583 190.199 139.649 190.131 143.945C190.131 143.945 193.947 145.026 198.019 144.807C198.019 144.807 201.842 137.645 204.885 135.104C204.885 135.104 202.235 141.81 201.53 146.2C201.53 146.2 205.939 138.994 210.204 135.497C210.204 135.497 206.151 142.372 204.561 146.718C204.561 146.718 208.795 151.545 214.893 151.645L218.716 143.721C218.716 143.721 216.752 151.732 218.504 157.57C218.504 157.57 218.585 154.186 220.013 151.813C220.468 159.2 222.37 165.201 224.902 169.272C224.89 169.278 236.9 146.993 222.707 128.934Z" fill="#C8615A"/>
<path fill-rule="evenodd" clip-rule="evenodd" d="M183.003 127.136C183.003 127.136 191.453 120.036 205.358 122.983C205.358 122.977 192.332 122.128 183.003 127.136Z" fill="#D68785"/>
<path d="M218.034 156.474C218.034 156.474 221.639 149.618 226.066 153.745C230.493 157.873 225.118 167.283 218.29 166.171L218.034 156.474Z" fill="#EFC4B6"/>
<path d="M248.673 261.668C248.555 262.449 248.224 263.211 247.738 263.904C245.312 267.407 238.964 269.367 235.578 264.428C234.823 263.329 234.218 261.893 233.832 260.064C233.052 256.373 232.223 252.708 231.387 249.124C229.429 240.669 227.471 232.626 226.317 225.57C225.794 222.392 225.426 219.407 225.301 216.685C224.815 206.463 227.59 199.782 237.405 199.419C246.197 199.089 250.457 204.671 252.171 212.913C255.065 226.794 250.737 248.224 248.673 261.668Z" fill="#EFC4B6"/>
<path d="M247.736 263.905C246.863 265.504 245.454 266.896 243.565 267.664C238.489 267.833 233.512 267.558 228.492 266.784C228.474 266.784 228.467 266.777 228.467 266.777C213.651 264.473 198.461 257.767 179.235 245.022L181.511 235.881C181.511 235.881 210.677 242.163 231.38 249.131C236.767 250.948 241.588 252.803 245.161 254.607C245.404 254.732 245.647 254.857 245.884 254.982C249.052 256.655 249.482 260.702 247.736 263.905Z" fill="#EFC4B6"/>
<path d="M182.206 236.036C182.206 236.036 178.814 231.659 174.056 230.098C174.056 230.098 171.15 229.317 174.86 233.682L175.733 235.78C175.733 235.78 167.857 236.042 160.767 233.719C159.432 233.282 156.894 234.806 169.934 239.795C170.09 240.619 161.016 238.583 158.722 237.072C158.16 236.704 156.508 236.96 157.674 238.752C157.674 238.752 156.19 239.058 158.098 241.381C158.098 241.381 164.608 249.105 179.755 245.327L182.206 236.036Z" fill="#EFC4B6"/>
<path d="M157.681 238.746C157.681 238.746 161.478 242.761 169.273 242.811" stroke="#EFC4B6" stroke-miterlimit="10" stroke-linecap="round" stroke-linejoin="round"/>
<path d="M248.673 261.668C248.554 262.449 248.224 263.211 247.737 263.904C246.864 265.502 245.455 266.895 243.566 267.663C238.49 267.831 233.513 267.557 228.493 266.782C228.475 266.782 228.469 266.776 228.469 266.776C231.156 266.308 233.513 265.509 235.571 264.435C239.98 262.143 243.048 258.634 245.162 254.606C249.97 245.496 250.911 222.117 250.469 216.06C250.83 222.049 226.429 221.524 225.488 218.883C225.245 218.208 225.008 217.521 224.833 216.828C225.101 216.535 225.02 216.966 225.294 216.685C238.596 202.648 249.028 210.028 252.165 212.913C255.064 226.794 250.737 248.224 248.673 261.668Z" fill="#EFC4B6"/>
<path fill-rule="evenodd" clip-rule="evenodd" d="M252.072 238.69C240.785 239.951 227.733 235.411 221.491 232.851C219.165 231.908 217.787 231.234 217.787 231.234C217.787 202.716 234.244 191.602 234.244 191.602C241.203 193.169 245.761 197.028 248.698 201.911C257.198 216.035 252.072 238.69 252.072 238.69Z" fill="#95C8AC"/>
<path fill-rule="evenodd" clip-rule="evenodd" d="M252.073 238.69C240.786 239.951 227.734 235.411 221.492 232.851C237.319 228.28 246.966 206.169 248.693 201.905C257.199 216.035 252.073 238.69 252.073 238.69Z" fill="black" fill-opacity="0.1"/>
<path d="M225.76 170.455C226.419 167.649 224.682 164.839 221.879 164.179C219.076 163.519 216.27 165.259 215.611 168.066C214.952 170.872 216.69 173.682 219.492 174.342C222.295 175.002 225.101 173.262 225.76 170.455Z" fill="#F7E8B7"/>
</svg>
