<svg width="30" height="30" viewBox="0 0 30 30" fill="none" xmlns="http://www.w3.org/2000/svg">
<path fill-rule="evenodd" clip-rule="evenodd" d="M30 8C30 3.58172 26.4183 0 22 0H8C3.58172 0 0 3.58172 0 8V22C0 26.4183 3.58172 30 8 30H22C26.4183 30 30 26.4183 30 22V8ZM10.2289 12.4334C8.56331 13.0804 6.85195 13.7452 5.28705 14.5121C5.287 14.5121 5.28694 14.5122 5.2869 14.5122C5.28687 14.5122 5.28683 14.5123 5.2868 14.5123C4.46975 15.0446 5.55586 15.421 6.57473 15.7742C6.73673 15.8304 6.89703 15.8859 7.04771 15.9414C7.17308 15.9757 7.30059 16.0118 7.42979 16.0485C8.56301 16.3697 9.82663 16.7279 10.9268 16.1891C12.7341 15.2654 14.4396 14.1975 16.1439 13.1304C16.7022 12.7809 17.2604 12.4314 17.822 12.0871C17.8483 12.0721 17.878 12.055 17.9104 12.0363C17.9796 11.9964 18.0613 11.9493 18.1492 11.9004C18.999 11.4287 18.7166 12.3503 17.9823 12.9871C17.3684 13.5195 16.7373 14.027 16.1041 14.5362C15.421 15.0855 14.7354 15.6367 14.0661 16.2236C13.6716 16.5087 13.2668 16.9891 13.2487 17.4527C13.2303 17.9272 13.7331 18.209 14.1373 18.4583C15.4434 19.2637 16.7647 20.0543 18.0853 20.8446C18.5823 21.142 19.0793 21.4394 19.5753 21.7375C20.4151 22.334 21.7276 21.8514 21.9124 20.9192C21.9942 20.4918 22.0764 20.0645 22.1585 19.6371C22.6144 17.2658 23.0704 14.8937 23.4731 12.5147C23.5279 12.1419 23.5899 11.769 23.6519 11.3959C23.7617 10.7362 23.8715 10.0759 23.9412 9.41392C23.9926 8.92466 24.0342 8.30933 23.5864 8.10551C23.1339 7.89952 22.4189 8.03525 21.9542 8.17305C18.4172 9.37046 14.9156 10.6566 11.4278 11.9655C11.0327 12.1212 10.6321 12.2768 10.2289 12.4334Z" fill="#1C2443"/>
</svg>
