<svg width="30" height="30" viewBox="0 0 30 30" fill="none" xmlns="http://www.w3.org/2000/svg">
<path d="M8 0C3.58172 0 0 3.58172 0 8V22C0 26.4183 3.58172 30 8 30H22C26.4183 30 30 26.4183 30 22V8C30 3.58172 26.4183 0 22 0H8ZM24.2187 21.4062H22.0312C21.2032 21.4062 20.9531 20.7343 19.4688 19.25C18.1718 18 17.625 17.8437 17.2969 17.8437C16.8438 17.8437 16.7187 17.9687 16.7187 18.5937V20.5625C16.7187 21.0937 16.5469 21.4062 15.1563 21.4062C13.8069 21.3155 12.4983 20.9056 11.3383 20.2102C10.1784 19.5147 9.20019 18.5537 8.48438 17.4062C6.96313 15.5127 5.85618 13.3249 5.23096 10.9843C5.0848 10.4372 4.95359 9.66271 5.50951 9.55455C5.58745 9.53939 5.67747 9.53119 5.78129 9.53119H7.96875C8.53125 9.53119 8.73441 9.78121 8.95312 10.3594C10.0156 13.4843 11.8282 16.2031 12.5625 16.2031C12.8438 16.2031 12.9687 16.0781 12.9687 15.375V12.1562C12.875 10.6875 12.0938 10.5624 12.0938 10.0312C12.104 9.8911 12.1685 9.76048 12.2736 9.66712C12.3786 9.57375 12.5159 9.52499 12.6562 9.53119H16.0938C16.5625 9.53119 16.7187 9.76557 16.7187 10.3281V14.6719C16.7187 15.1406 16.9219 15.2968 17.0625 15.2968C17.3438 15.2968 17.5625 15.1406 18.0781 14.625C19.1861 13.2738 20.0915 11.7684 20.7656 10.1562C20.8344 9.96223 20.9649 9.79611 21.137 9.68324C21.3091 9.57038 21.5135 9.51697 21.7188 9.53119H23.9062C24.5625 9.53119 24.7031 9.85932 24.5625 10.3281C23.7666 12.1105 22.7818 13.8025 21.625 15.375C21.3907 15.7343 21.2969 15.9218 21.625 16.3437C21.8438 16.6718 22.6094 17.3124 23.125 17.9218C23.7214 18.5167 24.2373 19.1858 24.6604 19.912C24.8783 20.286 25.1714 20.7473 24.9422 21.1144C24.8212 21.308 24.5691 21.4062 24.2187 21.4062Z" fill="#1C2443"/>
</svg>
