<svg width="200" height="22" viewBox="0 0 200 22" fill="none" xmlns="http://www.w3.org/2000/svg">
<path d="M6.41021 6.56651C8.01276 6.56651 9.32394 7.08846 10.3437 8.13237C11.3797 9.17627 11.8977 10.498 11.8977 12.0975C11.8977 13.7139 11.3716 15.0525 10.3195 16.1132C9.28347 17.1571 7.97229 17.6791 6.38593 17.6791H0V0H10.6108V2.70237H2.76804V6.56651H6.41021ZM6.1674 14.9262C7.00914 14.9262 7.6971 14.6652 8.23129 14.1432C8.76547 13.6045 9.03256 12.9225 9.03256 12.0975C9.03256 11.5587 8.91116 11.0789 8.66835 10.6579C8.42554 10.237 8.0856 9.90869 7.64854 9.67297C7.22767 9.43725 6.73395 9.31939 6.1674 9.31939H2.76804V14.9262H6.1674Z" fill="black"/>
<path d="M27.1519 10.5569C27.1519 10.8095 27.1357 11.121 27.1034 11.4914H16.4682C16.6301 12.5858 17.0672 13.4529 17.7794 14.0928C18.5079 14.7326 19.4063 15.0525 20.4746 15.0525C20.9926 15.0525 21.4782 14.9767 21.9315 14.8252C22.3847 14.6568 22.7813 14.4295 23.1213 14.1433C23.4774 13.8402 23.7688 13.4782 23.9954 13.0573H26.8363C26.3183 14.5053 25.4927 15.6418 24.3596 16.4668C23.2265 17.275 21.9315 17.6791 20.4746 17.6791C18.5483 17.6791 16.9377 16.9972 15.6427 15.6334C14.3639 14.2695 13.7245 12.569 13.7245 10.5317C13.7245 8.49439 14.3639 6.79383 15.6427 5.43002C16.9377 4.0662 18.5483 3.3843 20.4746 3.3843C21.7858 3.3843 22.9513 3.71262 23.9711 4.36928C24.9909 5.00909 25.776 5.8762 26.3264 6.97062C26.8767 8.0482 27.1519 9.24364 27.1519 10.5569ZM20.4746 5.90988C19.471 5.90988 18.6131 6.20453 17.9008 6.79383C17.2048 7.38313 16.7434 8.19132 16.5168 9.21839H24.4567C24.2948 8.52806 24.0278 7.93876 23.6554 7.45048C23.2831 6.94536 22.8218 6.56653 22.2714 6.31397C21.7372 6.04458 21.1383 5.90988 20.4746 5.90988Z" fill="black"/>
<path d="M37.3466 10.1023C38.4959 10.8095 39.0705 11.9123 39.0705 13.4108C39.0705 14.6736 38.5849 15.7007 37.6137 16.4921C36.6424 17.2834 35.396 17.6791 33.8744 17.6791C32.4013 17.6791 31.1953 17.2834 30.2565 16.4921C29.3338 15.6839 28.832 14.6063 28.7511 13.2593H31.2034C31.3006 13.8486 31.5838 14.3116 32.0533 14.6484C32.5227 14.9851 33.1297 15.1535 33.8744 15.1535C34.6352 15.1535 35.2503 14.9767 35.7197 14.6231C36.1892 14.2527 36.4239 13.7813 36.4239 13.2088C36.4239 12.6532 36.2134 12.1986 35.7926 11.845C35.3879 11.4914 34.8456 11.3146 34.1657 11.3146H32.4661V9.14262H34.1657C34.7809 9.14262 35.2665 8.9995 35.6226 8.71327C35.9787 8.4102 36.1568 8.00611 36.1568 7.50099C36.1568 6.9622 35.9464 6.53285 35.5255 6.21295C35.1046 5.89304 34.5461 5.73309 33.8501 5.73309C33.2188 5.73309 32.6927 5.88462 32.2718 6.18769C31.8671 6.49076 31.6243 6.91169 31.5434 7.45048H29.091C29.1557 6.2382 29.6333 5.26165 30.5236 4.52081C31.4301 3.76314 32.5632 3.3843 33.9229 3.3843C35.315 3.3843 36.4562 3.75472 37.3466 4.49555C38.253 5.23639 38.7063 6.17085 38.7063 7.29895C38.7063 8.51122 38.253 9.44569 37.3466 10.1023Z" fill="black"/>
<path d="M165.782 17.1672V13.9785H168.679V17.1672H165.782Z" fill="black"/>
<path d="M197.174 3.71502H200L194.11 17.4163C193.366 19.1269 192.606 20.3143 191.83 20.9786C191.07 21.6595 190.049 22 188.767 22H187.461V19.5089H188.553C189.392 19.5089 190.01 19.3345 190.405 18.9857C190.801 18.637 191.237 17.9145 191.712 16.8184L191.997 16.1956L186.416 3.71502H189.289L193.35 13.1066L197.174 3.71502Z" fill="black"/>
<path d="M67.5439 4.04093H69.0699V17.6791H66.4609V9.01632L59.3725 17.6791H57.7973V4.04093H60.4309V12.6279L67.5439 4.04093Z" fill="black"/>
<path d="M85.5751 10.5569C85.5751 10.8095 85.5587 11.121 85.5259 11.4914H74.7456C74.9097 12.5858 75.3527 13.4529 76.0747 14.0927C76.8131 14.7326 77.7237 15.0525 78.8067 15.0525C79.3318 15.0525 79.824 14.9767 80.2835 14.8252C80.7429 14.6568 81.1449 14.4295 81.4895 14.1433C81.8505 13.8402 82.1458 13.4782 82.3755 13.0573H85.2552C84.7301 14.5053 83.8933 15.6418 82.7447 16.4668C81.5961 17.275 80.2835 17.6791 78.8067 17.6791C76.8541 17.6791 75.2215 16.9972 73.9088 15.6333C72.6125 14.2695 71.9644 12.569 71.9644 10.5317C71.9644 8.49437 72.6125 6.79381 73.9088 5.43C75.2215 4.06618 76.8541 3.38428 78.8067 3.38428C80.1358 3.38428 81.3172 3.7126 82.3509 4.36925C83.3846 5.00907 84.1804 5.87618 84.7383 6.9706C85.2962 8.04818 85.5751 9.24362 85.5751 10.5569ZM78.8067 5.90986C77.7894 5.90986 76.9197 6.20451 76.1978 6.79381C75.4922 7.38311 75.0246 8.1913 74.7948 9.21837H82.8432C82.6791 8.52804 82.4083 7.93874 82.0309 7.45046C81.6535 6.94535 81.1859 6.56651 80.628 6.31395C80.0865 6.04456 79.4794 5.90986 78.8067 5.90986Z" fill="black"/>
<path d="M90.5647 4.04093H99.5975V17.6791H96.9148V6.46549H92.8045L92.2138 12.5016C92.0333 14.4211 91.5492 15.7765 90.7616 16.5678C89.9904 17.3592 88.8172 17.6791 87.242 17.6791H86.7744V15.1787H87.4143C88.7106 15.1787 89.4408 14.3453 89.6048 12.6784L90.5647 4.04093Z" fill="black"/>
<path d="M113.999 4.04093V6.56651H109.322V17.6791H106.664V6.56651H101.963V4.04093H113.999Z" fill="black"/>
<path d="M127.247 15.6586C125.901 17.0056 124.211 17.6791 122.177 17.6791C120.142 17.6791 118.444 17.0056 117.082 15.6586C115.736 14.2948 115.063 12.5858 115.063 10.5317C115.063 9.1847 115.367 7.964 115.974 6.86958C116.598 5.77516 117.451 4.92488 118.534 4.31874C119.633 3.69577 120.847 3.38428 122.177 3.38428C123.506 3.38428 124.712 3.69577 125.795 4.31874C126.894 4.92488 127.747 5.77516 128.354 6.86958C128.978 7.964 129.29 9.1847 129.29 10.5317C129.29 12.5858 128.609 14.2948 127.247 15.6586ZM122.177 15.002C123.013 15.002 123.76 14.8167 124.416 14.4463C125.073 14.0591 125.581 13.5287 125.942 12.8552C126.32 12.1649 126.508 11.3904 126.508 10.5317C126.508 9.23521 126.098 8.16605 125.278 7.32418C124.474 6.48232 123.44 6.06139 122.177 6.06139C120.913 6.06139 119.871 6.48232 119.051 7.32418C118.247 8.16605 117.845 9.23521 117.845 10.5317C117.845 11.8281 118.247 12.8973 119.051 13.7392C119.871 14.581 120.913 15.002 122.177 15.002Z" fill="black"/>
<path d="M139.338 3.38428C140.65 3.38428 141.832 3.69577 142.882 4.31874C143.932 4.92488 144.752 5.77516 145.343 6.86958C145.934 7.964 146.229 9.1847 146.229 10.5317C146.229 12.5858 145.573 14.2948 144.26 15.6586C142.964 17.0056 141.323 17.6791 139.338 17.6791C137.631 17.6791 136.163 17.1319 134.932 16.0374V22H132.2V3.7126H134.046L134.563 5.37949C135.843 4.04935 137.434 3.38428 139.338 3.38428ZM136.015 13.7392C136.835 14.581 137.869 15.002 139.116 15.002C140.38 15.002 141.421 14.581 142.242 13.7392C143.062 12.8805 143.473 11.8113 143.473 10.5317C143.473 9.25204 143.062 8.1913 142.242 7.34944C141.421 6.49074 140.388 6.06139 139.141 6.06139C138.32 6.06139 137.574 6.25502 136.901 6.64228C136.228 7.02953 135.703 7.56832 135.326 8.25865C134.965 8.93214 134.784 9.68981 134.784 10.5317C134.784 11.8113 135.195 12.8805 136.015 13.7392Z" fill="black"/>
<path d="M160.294 3.7126H162.411V17.3507H160.196L159.925 15.6839C158.645 17.014 157.045 17.6791 155.125 17.6791C153.14 17.6791 151.483 16.9972 150.154 15.6333C148.841 14.2695 148.185 12.569 148.185 10.5317C148.185 8.47753 148.841 6.77697 150.154 5.43C151.483 4.06618 153.14 3.38428 155.125 3.38428C157.078 3.38428 158.694 4.05777 159.974 5.40474L160.294 3.7126ZM152.197 13.7392C153.033 14.581 154.075 15.002 155.322 15.002C156.586 15.002 157.62 14.581 158.424 13.7392C159.244 12.8805 159.654 11.8113 159.654 10.5317C159.654 9.23521 159.244 8.16605 158.424 7.32418C157.62 6.48232 156.586 6.06139 155.322 6.06139C154.502 6.06139 153.755 6.25502 153.083 6.64228C152.426 7.02953 151.909 7.56832 151.532 8.25865C151.155 8.93214 150.966 9.68981 150.966 10.5317C150.966 11.8113 151.376 12.8805 152.197 13.7392Z" fill="black"/>
<path d="M49.2725 3.38428C50.5852 3.38428 51.7666 3.69576 52.8167 4.31874C53.8669 4.92488 54.6873 5.77516 55.278 6.86958C55.8687 7.964 56.164 9.1847 56.164 10.5317C56.164 12.5858 55.5077 14.2948 54.195 15.6586C52.8988 17.0056 51.2579 17.6791 49.2725 17.6791C47.566 17.6791 46.0975 17.1319 44.8669 16.0374V22H42.1349V3.7126H43.9808L44.4977 5.37949C45.7775 4.04935 47.3691 3.38428 49.2725 3.38428ZM45.9498 13.7392C46.7702 14.581 47.804 15.0019 49.051 15.0019C50.3144 15.0019 51.3564 14.581 52.1768 13.7392C52.9972 12.8805 53.4074 11.8113 53.4074 10.5317C53.4074 9.25204 52.9972 8.1913 52.1768 7.34944C51.3564 6.49074 50.3227 6.06139 49.0756 6.06139C48.2552 6.06139 47.5086 6.25502 46.8359 6.64228C46.1631 7.02953 45.6381 7.56832 45.2607 8.25865C44.8997 8.93214 44.7192 9.68981 44.7192 10.5317C44.7192 11.8113 45.1294 12.8805 45.9498 13.7392Z" fill="black"/>
<path d="M179.324 3.38428C180.637 3.38428 181.818 3.69577 182.869 4.31875C183.919 4.92489 184.739 5.77517 185.33 6.86958C185.921 7.964 186.216 9.1847 186.216 10.5317C186.216 12.5858 185.56 14.2948 184.247 15.6586C182.951 17.0056 181.31 17.6791 179.324 17.6791C177.618 17.6791 176.149 17.1319 174.919 16.0374V22H172.187V3.71261H174.033L174.55 5.37949C175.829 4.04935 177.421 3.38428 179.324 3.38428ZM176.002 13.7392C176.822 14.581 177.856 15.002 179.103 15.002C180.366 15.002 181.408 14.581 182.229 13.7392C183.049 12.8805 183.459 11.8113 183.459 10.5317C183.459 9.25205 183.049 8.1913 182.229 7.34944C181.408 6.49075 180.374 6.0614 179.127 6.0614C178.307 6.0614 177.56 6.25502 176.888 6.64228C176.215 7.02954 175.69 7.56833 175.313 8.25865C174.952 8.93214 174.771 9.68982 174.771 10.5317C174.771 11.8113 175.181 12.8805 176.002 13.7392Z" fill="black"/>
</svg>
