<svg width="36" height="37" viewBox="0 0 36 37" fill="none" xmlns="http://www.w3.org/2000/svg">
<g clip-path="url(#clip0)">
<path d="M18 0.5C8.07567 0.5 2.56642e-08 8.57567 0 18.5C0 23.3095 1.87268 27.8289 5.27318 31.2268C8.67112 34.6273 13.1931 36.5 18 36.5C27.9243 36.5 36 28.4243 36 18.5C36 8.57567 27.9243 0.5 18 0.5ZM18 3.06642C26.5077 3.06642 33.4336 9.98977 33.4336 18.5C33.4336 22.537 31.8592 26.2024 29.3133 28.9561C27.5502 26.8671 25.2726 25.33 22.7318 24.4549C24.4539 23.0408 25.5789 20.9128 25.5789 18.485C25.5789 14.2555 22.1381 10.8158 17.8496 10.8158C13.6227 10.8158 10.1805 14.2541 10.1805 18.5451C10.1805 20.9293 11.2982 23.0385 13.0125 24.4449C10.5231 25.2969 8.27906 26.7861 6.53133 28.8008C3.97774 25.9649 2.56642 22.3445 2.56642 18.5C2.56642 9.98977 9.49233 3.06642 18 3.06642ZM17.9098 13.3822C20.7251 13.3822 23.0125 15.6707 23.0125 18.5451C23.0125 21.3014 20.811 23.543 18.0752 23.6328C18.0008 23.6328 17.9291 23.6178 17.8546 23.6178C17.7905 23.6178 17.7283 23.6303 17.6642 23.6328C14.9361 23.5302 12.7469 21.2952 12.7469 18.485C12.7469 15.6722 15.0354 13.3822 17.9098 13.3822ZM17.6642 26.1942C17.7258 26.1968 17.788 26.2143 17.8496 26.2143H17.9098C17.9662 26.2143 18.0137 26.1968 18.0702 26.1942C21.7119 26.2584 25.1113 27.9111 27.4185 30.6905C24.8111 32.7154 21.5494 33.9336 18 33.9336C14.466 33.9336 11.1164 32.7439 8.39599 30.5702C10.7058 27.86 14.0763 26.2507 17.6642 26.1942Z" fill="black"/>
</g>
<defs>
<clipPath id="clip0">
<rect width="36" height="36" fill="white" transform="translate(0 0.5)"/>
</clipPath>
</defs>
</svg>
