<svg width="20" height="36" viewBox="0 0 20 36" fill="none" xmlns="http://www.w3.org/2000/svg">
<circle cx="10" cy="18" r="10" fill="#5DC087"/>
<path d="M16.0547 15.4219C16.0547 15.2266 15.9766 15.0312 15.8359 14.8906L14.7734 13.8281C14.6328 13.6875 14.4375 13.6094 14.2422 13.6094C14.0469 13.6094 13.8516 13.6875 13.7109 13.8281L8.58594 18.9609L6.28906 16.6562C6.14844 16.5156 5.95313 16.4375 5.75781 16.4375C5.5625 16.4375 5.36719 16.5156 5.22656 16.6562L4.16406 17.7187C4.02344 17.8594 3.94531 18.0547 3.94531 18.25C3.94531 18.4453 4.02344 18.6406 4.16406 18.7812L6.99219 21.6094L8.05469 22.6719C8.19531 22.8125 8.39063 22.8906 8.58594 22.8906C8.78125 22.8906 8.97656 22.8125 9.11719 22.6719L10.1797 21.6094L15.8359 15.9531C15.9766 15.8125 16.0547 15.6172 16.0547 15.4219Z" fill="white"/>
</svg>
