<svg width="16" height="16" viewBox="0 0 16 16" fill="none" xmlns="http://www.w3.org/2000/svg">
<path d="M8 0C3.58919 0 1.14063e-08 3.58919 0 8C0 10.1375 0.832303 12.1462 2.34364 13.6564C3.85383 15.1677 5.8636 16 8 16C12.4108 16 16 12.4108 16 8C16 3.58919 12.4108 1.14063e-08 8 0ZM8 1.14063C11.7812 1.14063 14.8594 4.21767 14.8594 8C14.8594 9.79421 14.1596 11.4233 13.0281 12.6472C12.2445 11.7187 11.2323 11.0356 10.103 10.6466C10.8684 10.0181 11.3684 9.07235 11.3684 7.99332C11.3684 6.11356 9.83916 4.5848 7.93317 4.5848C6.05455 4.5848 4.52465 6.11292 4.52465 8.02005C4.52465 9.07969 5.02141 10.0171 5.78335 10.6422C4.67694 11.0209 3.67958 11.6827 2.90281 12.5781C1.76789 11.3177 1.14063 9.70866 1.14063 8C1.14063 4.21767 4.21881 1.14063 8 1.14063ZM7.9599 5.72542C9.21117 5.72542 10.2278 6.74255 10.2278 8.02005C10.2278 9.24509 9.24933 10.2413 8.03342 10.2813C8.00034 10.2813 7.96847 10.2746 7.93539 10.2746C7.90688 10.2746 7.87925 10.2801 7.85074 10.2813C6.63825 10.2356 5.66527 9.24231 5.66527 7.99332C5.66527 6.74319 6.68239 5.72542 7.9599 5.72542ZM7.85074 11.4197C7.87811 11.4208 7.90579 11.4286 7.93317 11.4286H7.9599C7.98499 11.4286 8.00609 11.4208 8.03119 11.4197C9.64974 11.4482 11.1606 12.1827 12.186 13.418C11.0271 14.3179 9.57749 14.8594 8 14.8594C6.42935 14.8594 4.94062 14.3306 3.73155 13.3645C4.75812 12.16 6.25614 11.4448 7.85074 11.4197Z" fill="#E82431"/>
</svg>
