<svg width="300" height="300" viewBox="0 0 300 300" fill="none" xmlns="http://www.w3.org/2000/svg">
<path d="M238.742 300C259.054 300 275.519 283.749 275.519 263.703C275.519 243.656 259.054 227.405 238.742 227.405C218.431 227.405 201.965 243.656 201.965 263.703C201.965 283.749 218.431 300 238.742 300Z" fill="#F8E9BD"/>
<path d="M282.285 234.745C292.069 234.745 300 226.918 300 217.262C300 207.607 292.069 199.78 282.285 199.78C272.501 199.78 264.57 207.607 264.57 217.262C264.57 226.918 272.501 234.745 282.285 234.745Z" fill="#F8E9BD"/>
<path d="M18.2496 186.868C28.3285 186.868 36.5409 178.803 36.5925 168.855C36.6441 158.907 28.5154 150.842 18.4365 150.842C8.35758 150.842 0.145175 158.907 0.0935663 168.855C0.0419579 178.803 8.17069 186.868 18.2496 186.868Z" fill="#F8E9BD"/>
<path d="M10.9832 140.967C15.2207 140.967 18.6634 137.578 18.6728 133.396C18.6822 129.215 15.2547 125.825 11.0173 125.825C6.77983 125.825 3.33711 129.215 3.32772 133.396C3.31833 137.578 6.74583 140.967 10.9832 140.967Z" fill="#F8E9BD"/>
<path fill-rule="evenodd" clip-rule="evenodd" d="M52.4896 22.6997C52.6476 20.5747 54.523 18.9761 56.6748 19.1255C58.8266 19.2815 60.4454 21.1335 60.2941 23.2585C60.1361 25.3835 58.2607 26.9821 56.1089 26.8327C53.9505 26.6832 52.3317 24.8311 52.4896 22.6997Z" fill="#F8E9BD"/>
<path fill-rule="evenodd" clip-rule="evenodd" d="M127.435 14.7881C139.109 8.24921 152.197 3.86591 166.299 2.19515C225.88 -4.84749 281.283 39.1476 291.34 100.896C276.843 73.5861 247.868 54.9957 214.328 54.9957C165.914 54.9957 126.323 93.7306 125.898 141.512C125.474 189.294 164.376 228.029 212.79 228.029C213.148 228.029 213.506 228.027 213.863 228.023C208.811 229.413 203.589 230.442 198.221 231.077C185.817 232.544 173.597 231.798 161.923 229.137C153.697 251.178 134.43 267.689 110.082 270.572C74.2056 274.811 40.8889 247.863 35.664 210.372C31.6828 181.799 45.1661 155.349 67.691 142.507C67.2567 142.572 66.8224 142.638 66.3881 142.69C36.4536 146.235 8.64468 123.735 4.28185 92.4492C-0.0809855 61.1633 20.654 32.9307 50.5884 29.386C54.6617 28.9012 58.6955 28.9208 62.6372 29.3598C65.8024 14.1264 77.8117 2.11652 93.6114 0.249197C106.831 -1.31674 119.433 4.61284 127.435 14.7881Z" fill="#FDF9EA"/>
<path d="M81.6305 145.283C102.415 140.525 115.389 119.891 110.61 99.1964C105.831 78.5019 85.1079 65.5832 64.3237 70.3417C43.5394 75.1002 30.5647 95.734 35.3438 116.428C40.123 137.123 60.8462 150.042 81.6305 145.283Z" fill="#FEFCE6"/>
<path d="M214.392 210.548C253.097 210.548 284.473 179.581 284.473 141.38C284.473 103.18 253.097 72.2128 214.392 72.2128C175.687 72.2128 144.311 103.18 144.311 141.38C144.311 179.581 175.687 210.548 214.392 210.548Z" fill="#F8E9BD"/>
<path d="M237.512 86.0086C252.811 101.373 246.823 128.426 246.823 128.426C242.441 134.382 234.603 134.009 234.603 134.009C234.36 123.683 228.766 121.35 228.766 121.35C233.109 128.4 232.293 133.747 232.293 133.747C211.335 150.585 189.409 138.261 189.409 138.261C187.231 134.317 190.652 117.989 190.652 117.989C185.77 129.632 186.928 137.802 186.928 137.802C178.018 140.469 171.727 133.229 171.727 133.229C171.484 125.065 178.498 112.269 178.498 112.269C170.839 119.542 169.819 132.967 169.819 132.967L167.338 131.945C166.95 120.164 170.214 114.896 178.097 106.661C185.974 98.4182 187.303 92.3838 190.909 84.9669C200.977 64.2887 223.522 71.9611 237.512 86.0086Z" fill="#8E6447"/>
<path d="M206.188 72.2954C203.668 73.9531 201.957 76.5084 200.49 79.0767C199.003 81.6582 197.831 84.4035 196.719 87.1685C195.607 89.9334 194.534 92.718 193.212 95.4044C191.909 98.0973 190.191 100.58 188.375 102.946C186.552 105.311 184.624 107.591 182.92 110.035C181.222 112.479 179.748 115.08 178.511 117.78C177.274 120.486 176.241 123.29 175.438 126.153C175.037 127.588 174.701 129.036 174.444 130.504C174.319 131.237 174.201 131.971 174.115 132.712C174.076 133.078 174.036 133.452 174.017 133.825C174.023 134.192 174.102 134.572 174.036 134.939C174.102 134.572 174.017 134.199 174.003 133.825C174.017 133.452 174.049 133.078 174.082 132.712C174.155 131.971 174.26 131.231 174.372 130.497C174.602 129.023 174.912 127.562 175.293 126.12C176.076 123.237 177.103 120.427 178.327 117.707C179.557 114.988 181.018 112.368 182.716 109.904C184.414 107.44 186.329 105.141 188.138 102.775C189.968 100.423 191.678 97.9793 192.988 95.3061C194.317 92.646 195.403 89.8679 196.535 87.1095C197.667 84.3511 198.851 81.5993 200.358 79.0178C201.872 76.4559 203.642 73.9138 206.188 72.2954Z" fill="#5C412E"/>
<path d="M212.42 72.302C210.946 72.8655 209.624 73.7631 208.485 74.8376C207.34 75.9122 206.36 77.1439 205.478 78.4347C203.714 81.0227 202.286 83.827 200.964 86.664C198.312 92.3315 196.134 98.2742 192.62 103.522C189.04 108.712 184.223 112.918 181.032 118.33C180.222 119.667 179.557 121.088 178.932 122.523C178.314 123.958 177.748 125.419 177.248 126.907C176.741 128.387 176.294 129.888 175.912 131.408C175.721 132.168 175.543 132.928 175.412 133.701C175.346 134.088 175.293 134.474 175.254 134.867C175.241 135.064 175.313 135.254 175.359 135.437C175.405 135.614 175.458 135.857 175.287 135.981C175.458 135.85 175.399 135.614 175.353 135.437C175.307 135.247 175.228 135.064 175.241 134.861C175.274 134.468 175.32 134.081 175.379 133.694C175.497 132.921 175.668 132.155 175.846 131.388C176.201 129.861 176.623 128.348 177.116 126.861C177.61 125.367 178.169 123.899 178.781 122.458C179.4 121.016 180.058 119.588 180.867 118.232C184.059 112.767 188.862 108.528 192.383 103.359C195.903 98.1694 198.108 92.2398 200.793 86.5788C202.135 83.7418 203.583 80.9441 205.366 78.3495C206.268 77.0653 207.274 75.8401 208.439 74.7787C209.597 73.7238 210.94 72.8393 212.42 72.302Z" fill="#5C412E"/>
<path d="M211.118 73.5598C211.243 76.6524 210.539 79.6925 209.874 82.6868C209.176 85.6876 208.268 88.6426 207.09 91.4992C205.932 94.3559 204.504 97.1078 202.833 99.7089C201.155 102.304 199.187 104.708 197.068 106.955C194.949 109.203 192.738 111.352 190.685 113.645C188.626 115.932 186.777 118.408 185.296 121.101C183.815 123.788 182.697 126.697 182.177 129.724C181.9 131.231 181.782 132.77 181.835 134.31C181.867 135.077 181.907 135.85 182.032 136.603L182.229 137.737C182.243 137.933 182.335 138.104 182.427 138.274L182.565 138.53C182.585 138.575 182.611 138.615 182.624 138.661C182.631 138.68 182.644 138.707 182.624 138.733C182.605 138.746 182.578 138.733 182.558 138.726C182.578 138.733 182.605 138.746 182.624 138.733C182.637 138.713 182.624 138.687 182.624 138.667C182.611 138.621 182.585 138.582 182.565 138.536L182.42 138.287C182.322 138.123 182.229 137.946 182.21 137.75L181.993 136.616C181.854 135.856 181.802 135.09 181.756 134.317C181.677 132.777 181.775 131.231 182.025 129.704C182.526 126.651 183.644 123.729 185.118 121.016C186.592 118.297 188.441 115.794 190.501 113.488C192.548 111.175 194.752 109.013 196.858 106.759C198.983 104.531 200.951 102.153 202.635 99.5779C204.313 97.0029 205.748 94.2707 206.919 91.4272C208.104 88.5901 209.025 85.6417 209.742 82.654C210.446 79.6728 211.197 76.6524 211.118 73.5598Z" fill="#5C412E"/>
<path d="M212.467 73.3436C213.125 74.713 213.506 76.2069 213.704 77.7138C213.908 79.2208 213.947 80.7474 213.901 82.2675C213.789 85.3076 213.355 88.3215 212.756 91.3027C211.532 97.2519 209.361 103.044 206.097 108.2C204.458 110.782 202.464 113.101 200.523 115.427C199.549 116.593 198.582 117.766 197.674 118.978C196.753 120.184 195.937 121.462 195.279 122.824C193.956 125.544 193.258 128.551 193.114 131.571C193.028 133.085 193.074 134.605 193.258 136.105C193.35 136.859 193.475 137.606 193.633 138.346C193.851 139.067 193.936 139.847 194.351 140.495C193.923 139.853 193.824 139.08 193.594 138.359C193.423 137.619 193.285 136.872 193.179 136.119C192.969 134.612 192.903 133.085 192.962 131.565C193.087 128.525 193.772 125.498 195.094 122.739C195.752 121.363 196.568 120.06 197.49 118.847C198.398 117.622 199.358 116.443 200.326 115.27C202.26 112.931 204.234 110.605 205.847 108.043C209.117 102.939 211.308 97.1864 212.565 91.2568C213.177 88.2888 213.618 85.2814 213.756 82.2544C213.829 80.7409 213.809 79.2208 213.631 77.7204C213.46 76.22 213.098 74.7261 212.467 73.3436Z" fill="#5C412E"/>
<path d="M215.802 73.1012C217.316 75.853 218.263 78.8932 218.77 81.9923C219.264 85.0979 219.329 88.2626 219.053 91.3879C218.494 97.6385 216.566 103.824 213.091 109.105C211.36 111.738 209.347 114.169 207.313 116.561C205.3 118.965 203.135 121.265 201.43 123.892C199.72 126.507 198.43 129.422 197.87 132.502C197.587 134.035 197.462 135.607 197.555 137.173C197.594 137.953 197.693 138.733 197.831 139.506C197.903 139.892 197.989 140.272 198.107 140.646C198.173 140.829 198.226 141.019 198.272 141.209C198.298 141.301 198.318 141.399 198.351 141.491C198.371 141.537 198.384 141.583 198.417 141.622C198.443 141.675 198.509 141.668 198.535 141.616C198.509 141.662 198.443 141.675 198.417 141.622C198.384 141.583 198.371 141.537 198.351 141.491C198.318 141.399 198.292 141.301 198.265 141.209C198.219 141.019 198.16 140.836 198.094 140.646C197.969 140.272 197.877 139.892 197.798 139.506C197.64 138.739 197.535 137.96 197.482 137.173C197.364 135.607 197.462 134.028 197.726 132.476C198.272 129.37 199.562 126.428 201.266 123.788C202.108 122.458 203.082 121.213 204.089 120.001L207.129 116.397C209.156 113.999 211.143 111.568 212.854 108.941C216.329 103.725 218.276 97.5861 218.869 91.3682C219.165 88.256 219.112 85.1045 218.638 82.0119C218.171 78.9194 217.276 75.8727 215.802 73.1012Z" fill="#5C412E"/>
<path d="M203.984 73.5598C201.246 74.8309 199.167 77.111 197.397 79.4828C195.614 81.8743 194.192 84.5082 192.968 87.2273C191.731 89.9399 190.652 92.7245 189.434 95.4501C188.829 96.8195 188.178 98.1626 187.467 99.4796C186.743 100.79 185.921 102.055 184.986 103.234C184.045 104.4 182.986 105.494 181.788 106.405C180.597 107.329 179.327 108.115 178.116 108.987C175.668 110.69 173.688 112.983 172.115 115.506C170.516 118.015 169.41 120.826 168.851 123.748C168.706 124.476 168.594 125.216 168.522 125.956C168.443 126.697 168.384 127.437 168.417 128.184C168.449 129.671 168.66 131.165 168.469 132.652C168.634 131.165 168.403 129.678 168.344 128.191C168.305 127.444 168.351 126.697 168.417 125.95C168.482 125.203 168.581 124.462 168.713 123.729C169.252 120.787 170.358 117.943 171.95 115.408C173.516 112.865 175.51 110.533 177.978 108.797C179.195 107.919 180.459 107.119 181.63 106.202C182.808 105.298 183.835 104.217 184.762 103.057C185.697 101.904 186.513 100.652 187.237 99.3617C187.947 98.0578 188.605 96.7146 189.217 95.3584C190.448 92.6458 191.54 89.8678 192.797 87.1552C194.041 84.4427 195.475 81.7957 197.285 79.4042C199.101 77.052 201.227 74.7916 203.984 73.5598Z" fill="#5C412E"/>
<path d="M228.772 84.7245C230.081 86.4018 231.312 88.1446 232.391 89.9792C233.438 91.8334 234.385 93.7466 235.168 95.7319C235.938 97.7171 236.596 99.7483 237.103 101.819C237.596 103.889 237.985 105.986 238.241 108.102C238.465 110.218 238.61 112.348 238.623 114.477C238.636 116.607 238.57 118.729 238.465 120.852C238.36 122.975 238.208 125.098 237.991 127.214C237.879 128.269 237.728 129.324 237.59 130.379C237.511 130.903 237.465 131.434 237.366 131.958L237.228 132.744C237.202 132.875 237.195 133.006 237.182 133.137C237.175 133.203 237.169 133.268 237.155 133.334C237.149 133.393 237.103 133.498 237.037 133.426C237.103 133.498 237.149 133.386 237.149 133.334C237.162 133.268 237.169 133.203 237.175 133.137C237.188 133.006 237.188 132.869 237.215 132.738L237.333 131.951C237.419 131.427 237.458 130.897 237.524 130.372C237.636 129.318 237.767 128.263 237.853 127.201C238.05 125.085 238.189 122.969 238.274 120.846C238.366 118.723 238.412 116.6 238.386 114.477C238.36 112.354 238.195 110.238 237.958 108.135C237.721 106.025 237.346 103.942 236.873 101.871C236.386 99.8072 235.741 97.7827 234.991 95.7974C233.444 91.8465 231.345 88.1184 228.772 84.7245Z" fill="#5C412E"/>
<path d="M228.72 84.1415C230.194 85.7467 231.556 87.4568 232.78 89.2652C233.958 91.0997 234.998 93.026 235.899 95.0113C236.775 97.0096 237.499 99.0735 238.091 101.17C238.663 103.273 239.091 105.416 239.4 107.578C239.677 109.74 239.815 111.922 239.854 114.097C239.868 116.279 239.789 118.454 239.591 120.623C239.407 122.792 239.15 124.954 238.887 127.116L238.446 130.353C238.367 130.89 238.308 131.434 238.209 131.965L238.071 132.771C238.051 132.908 238.012 133.039 237.979 133.17L237.926 133.367L237.9 133.465L237.887 133.517C237.887 133.537 237.9 133.498 237.9 133.485C237.893 133.491 237.887 133.537 237.887 133.517L237.9 133.465L237.926 133.367L237.972 133.17C238.005 133.039 238.038 132.908 238.058 132.771L238.176 131.965C238.262 131.427 238.308 130.884 238.374 130.346L238.742 127.103C238.986 124.941 239.229 122.779 239.394 120.617C239.571 118.448 239.637 116.279 239.604 114.11C239.545 111.942 239.394 109.773 239.104 107.624C238.808 105.475 238.4 103.339 237.847 101.242C237.268 99.1522 236.564 97.0948 235.709 95.0964C234.827 93.1112 233.807 91.1915 232.642 89.3503C231.484 87.5092 230.161 85.7729 228.72 84.1415Z" fill="#5C412E"/>
<path d="M233.392 82.274C234.82 83.9317 236.176 85.6614 237.354 87.5091C238.505 89.3764 239.545 91.3093 240.381 93.3404C241.21 95.365 241.92 97.4485 242.44 99.5779C242.947 101.707 243.342 103.87 243.572 106.051C244.013 110.415 243.901 114.811 243.533 119.168C243.355 121.35 243.138 123.526 242.907 125.694L242.539 128.951C242.473 129.494 242.427 130.038 242.341 130.576L242.223 131.388C242.197 131.526 242.197 131.657 242.19 131.794C242.19 131.86 242.184 131.932 242.177 131.997C242.177 132.056 242.137 132.168 242.059 132.109C242.137 132.168 242.17 132.056 242.17 131.997C242.177 131.932 242.177 131.86 242.177 131.794C242.177 131.657 242.177 131.519 242.197 131.381L242.295 130.569C242.361 130.025 242.401 129.481 242.453 128.938L242.756 125.675C242.967 123.499 243.177 121.324 243.335 119.142C243.671 114.785 243.743 110.408 243.276 106.071C243.065 103.902 242.684 101.753 242.197 99.6238C241.697 97.5009 241.006 95.4239 240.196 93.3994C238.538 89.3764 236.209 85.6221 233.392 82.274Z" fill="#5C412E"/>
<path d="M240.782 91.401C241.598 92.8949 242.308 94.4477 242.92 96.0398C243.493 97.6451 243.967 99.2831 244.348 100.947C244.71 102.612 244.98 104.295 245.178 105.992C245.355 107.689 245.46 109.393 245.493 111.096C245.5 112.8 245.447 114.503 245.335 116.207C245.217 117.91 245.026 119.594 244.855 121.291L244.335 126.369C244.243 127.214 244.098 128.053 243.986 128.898C243.921 129.318 243.875 129.743 243.796 130.156L243.677 130.785C243.657 130.89 243.638 130.995 243.631 131.1L243.611 131.257C243.605 131.283 243.605 131.309 243.592 131.336C243.592 131.368 243.552 131.381 243.546 131.342C243.559 131.375 243.592 131.368 243.592 131.336C243.598 131.309 243.605 131.283 243.605 131.257L243.618 131.1C243.625 130.995 243.638 130.89 243.657 130.785L243.756 130.156C243.829 129.737 243.861 129.311 243.914 128.892C244.006 128.046 244.125 127.208 244.197 126.356L244.664 121.278C244.816 119.588 244.993 117.891 245.092 116.2C245.191 114.503 245.224 112.806 245.204 111.109C245.184 109.413 245.092 107.716 244.934 106.032C244.756 104.341 244.5 102.664 244.158 101.006C243.434 97.6713 242.341 94.4346 240.782 91.401Z" fill="#5C412E"/>
<path d="M232.991 85.039C242.138 94.7687 239.512 135.974 207.149 131.735C186.026 128.97 187.375 109.222 187.375 109.222C187.816 95.1356 195.061 86.7818 195.061 86.7818C204.741 77.4517 220.797 72.066 232.991 85.039Z" fill="#EFC4B6"/>
<path d="M234.974 116.644C227.127 104.906 232.532 81.2872 232.532 81.2872C248.46 100.137 234.974 116.644 234.974 116.644Z" fill="#8E6447"/>
<path d="M233.287 84.22C233.412 85.5238 233.504 86.8277 233.57 88.1315C233.629 89.4354 233.662 90.7458 233.689 92.0562C233.735 94.6704 233.735 97.2847 233.814 99.8924C233.846 101.196 233.899 102.5 233.985 103.804C234.057 105.108 234.241 106.399 234.366 107.702L234.774 111.601C234.84 112.249 234.932 112.898 235.011 113.547L235.136 114.516L235.202 115.001C235.209 115.08 235.235 115.159 235.261 115.237L235.294 115.355C235.301 115.375 235.301 115.394 235.307 115.414C235.314 115.44 235.288 115.453 235.274 115.427C235.327 115.473 235.301 115.375 235.294 115.355L235.255 115.237C235.228 115.159 235.202 115.08 235.189 115.001L235.103 114.516L234.945 113.547C234.847 112.898 234.728 112.256 234.636 111.607L234.149 107.715C233.991 106.418 233.814 105.121 233.728 103.81C233.636 102.507 233.577 101.196 233.531 99.8858C233.399 94.6704 233.577 89.4419 233.287 84.22Z" fill="#5C412E"/>
<path d="M234.762 84.8424C235.11 86.0873 235.393 87.3518 235.624 88.6229C235.834 89.9006 235.992 91.1848 236.104 92.4755C236.321 95.057 236.341 97.645 236.315 100.233C236.262 102.821 236.163 105.396 236.091 107.978L235.953 111.85C235.92 112.492 235.913 113.141 235.894 113.783L235.867 114.752L235.847 115.237L235.834 115.48L235.828 115.598L235.821 115.657C235.821 115.676 235.808 115.709 235.808 115.67C235.815 115.702 235.821 115.676 235.821 115.657V115.598V115.48V115.237V114.752L235.815 113.783C235.808 113.134 235.795 112.492 235.801 111.843L235.854 107.971L236.012 100.227C236.065 97.645 236.038 95.0635 235.867 92.4952C235.709 89.9202 235.374 87.3518 234.762 84.8424Z" fill="#5C412E"/>
<path d="M236.314 85.0062C236.775 86.1659 237.209 87.3387 237.545 88.5378C237.874 89.7433 238.164 90.962 238.361 92.1938C238.776 94.6573 238.907 97.1668 238.855 99.6696C238.769 102.166 238.552 104.662 238.078 107.113C237.617 109.557 237.209 112.046 236.584 114.431C236.532 114.123 236.65 113.815 236.709 113.514L236.946 112.61C237.078 112.007 237.15 111.385 237.249 110.769L237.854 107.08C238.282 104.63 238.499 102.146 238.558 99.6631C238.637 97.1799 238.499 94.6901 238.137 92.2331C237.782 89.7695 237.163 87.3453 236.314 85.0062Z" fill="#5C412E"/>
<path d="M232.03 119.896C237.683 123.637 247.672 113.822 240.888 108.056C234.097 102.291 231.366 114.294 231.366 114.294L232.03 119.896Z" fill="#EFC4B6"/>
<path d="M194.875 106.102C194.724 105.841 194.65 105.504 194.673 105.151C194.695 104.798 194.809 104.473 194.99 104.233C195.17 103.994 195.437 103.816 195.754 103.836C196.071 103.856 196.314 104.065 196.464 104.323C196.615 104.584 196.688 104.921 196.666 105.274C196.643 105.628 196.527 105.953 196.346 106.193C196.166 106.43 195.9 106.609 195.584 106.589L194.875 106.102ZM194.875 106.102C195.024 106.361 195.268 106.569 195.584 106.589L194.875 106.102Z" fill="black" stroke="black" stroke-width="0.5"/>
<path d="M210.966 105.374C210.944 105.727 211.018 106.065 211.168 106.327C211.317 106.586 211.56 106.798 211.878 106.818C212.195 106.838 212.463 106.66 212.642 106.421C212.823 106.181 212.937 105.856 212.959 105.503C212.982 105.15 212.908 104.813 212.757 104.552C212.608 104.294 212.365 104.086 212.05 104.065C211.732 104.041 211.462 104.217 211.282 104.455C211.1 104.695 210.985 105.021 210.966 105.374Z" fill="black" stroke="black" stroke-width="0.5"/>
<path d="M200.675 113.966C201.365 113.095 201.596 111.758 201.471 110.664C201.471 110.664 200.142 110.743 199.885 110.631C198.437 110.009 198.016 107.82 199.141 106.72C199.891 105.986 200.997 106.11 201.813 106.654C202.135 106.87 202.412 107.139 202.655 107.44C202.682 107.473 202.978 107.886 202.997 107.873C203.241 107.657 203.109 106.313 203.116 106.025C203.169 104.531 203.201 102.926 202.635 101.511C202.497 101.164 202.227 100.489 201.918 100.279" stroke="black" stroke-width="0.5" stroke-miterlimit="10" stroke-linecap="round" stroke-linejoin="round"/>
<path d="M207.301 116.354C206.88 117.947 206.169 119.499 204.689 120.332C203.136 121.196 201.28 121.006 199.99 119.781C199.733 119.539 199.306 119.205 199.194 118.851" stroke="black" stroke-width="0.5" stroke-miterlimit="10" stroke-linecap="round" stroke-linejoin="round"/>
<path d="M214.881 102.199C213.657 101.137 211.427 100.731 210.479 102.389" stroke="black" stroke-width="0.5" stroke-miterlimit="10" stroke-linecap="round" stroke-linejoin="round"/>
<path d="M193.653 102.507C194.317 101.825 195.127 101.38 196.101 101.504C196.423 101.544 196.746 101.642 197.029 101.812" stroke="black" stroke-width="0.5" stroke-miterlimit="10" stroke-linecap="round" stroke-linejoin="round"/>
<path d="M237.709 85.7466C236.544 99.5517 218.896 96.2757 218.896 96.2757C221.89 93.3076 220.087 90.7654 220.087 90.7654C215.309 99.1586 206.202 99.2372 206.202 99.2372C212.651 96.4133 210.999 91.4468 210.999 91.4468C196.548 108.207 182.966 99.3224 182.966 99.3224C190.573 102.199 197.641 93.1438 197.641 93.1438C189.106 100.534 183.888 96.0005 183.888 96.0005C187.928 94.8473 188.579 92.4362 188.579 92.4362C185.822 94.3363 183.164 92.9735 183.164 92.9735C187.796 62.3166 213.783 69.2814 213.783 69.2814C228.345 72.7081 237.709 85.7466 237.709 85.7466Z" fill="#8E6447"/>
<path d="M219.205 71.0962C217.356 70.6048 215.441 70.3755 213.533 70.3296C211.624 70.2837 209.709 70.4148 207.821 70.7227C204.063 71.3452 200.352 72.5769 197.207 74.7129C195.614 75.7481 194.245 77.0978 193.028 78.5524C191.811 80.0135 190.718 81.586 189.705 83.1978C188.692 84.8161 187.751 86.4738 186.757 88.1118C186.263 88.9308 185.717 89.717 185.184 90.5098C184.914 90.9029 184.658 91.3092 184.375 91.6892L183.927 92.2461C183.855 92.3378 183.783 92.4361 183.677 92.5016L183.532 92.6065C183.5 92.6327 183.414 92.7113 183.493 92.7375C183.414 92.7113 183.5 92.6327 183.532 92.5999L183.671 92.4885C183.769 92.423 183.842 92.3247 183.914 92.2264L184.348 91.6564C184.625 91.2633 184.868 90.8571 185.132 90.4574C185.645 89.6515 186.171 88.8587 186.638 88.0266C187.612 86.3886 188.54 84.7178 189.54 83.0864C190.547 81.4549 191.626 79.8759 192.844 78.3886C194.061 76.9078 195.436 75.5319 197.049 74.4639C200.267 72.3214 204.017 71.1158 207.801 70.5196C211.578 69.9561 215.513 70.0217 219.205 71.0962Z" fill="#5C412E"/>
<path d="M230.049 77.799C230.516 79.3452 230.542 80.9963 230.332 82.595C230.121 84.1937 229.753 85.7727 229.253 87.3059C228.726 88.8325 228.042 90.3133 227.107 91.6434C226.647 92.3051 226.12 92.9276 225.535 93.491C225.239 93.7662 224.929 94.0283 224.6 94.2576C224.278 94.5 223.949 94.7359 223.6 94.9259C224.923 94.0217 226.061 92.8555 226.93 91.5123C227.812 90.1823 228.483 88.7212 228.983 87.2076C229.503 85.7007 229.865 84.1347 230.121 82.5557C230.358 80.9898 230.417 79.3714 230.049 77.799Z" fill="#5C412E"/>
<path d="M219.87 71.4763C218.027 71.6467 216.224 72.1053 214.5 72.754C212.77 73.3895 211.118 74.2216 209.552 75.1848C206.42 77.1242 203.623 79.5877 201.293 82.4247C198.938 85.2421 197.003 88.4133 194.502 91.1586C193.265 92.528 191.857 93.7728 190.232 94.6836C189.422 95.1422 188.56 95.5026 187.678 95.7843C186.797 96.066 185.889 96.2954 184.967 96.3478C185.889 96.2757 186.783 96.0202 187.652 95.7188C188.521 95.4174 189.363 95.0374 190.153 94.5656C191.745 93.6418 193.134 92.41 194.351 91.0341C196.812 88.2888 198.707 85.1111 201.056 82.2478C203.439 79.4108 206.275 76.9538 209.44 75.0341C211.026 74.0775 212.697 73.2519 214.441 72.6295C216.198 72.0136 218.027 71.6008 219.87 71.4763Z" fill="#5C412E"/>
<path d="M220.041 71.5483C218.27 72.4525 216.764 73.7629 215.382 75.1651C213.993 76.5672 212.736 78.0938 211.598 79.6991C209.308 82.9095 207.34 86.3428 205.077 89.5926C203.932 91.2044 202.714 92.7769 201.352 94.2249C200.003 95.6794 198.483 96.9899 196.792 98.0316C195.101 99.0734 193.238 99.8727 191.284 100.24C190.304 100.423 189.303 100.482 188.316 100.449C187.823 100.43 187.329 100.397 186.829 100.338C186.342 100.253 185.875 100.03 185.381 100.063C185.875 100.023 186.355 100.227 186.836 100.305C187.329 100.351 187.823 100.371 188.316 100.377C189.303 100.384 190.29 100.305 191.258 100.102C193.192 99.7155 195.028 98.9227 196.693 97.8744C200.049 95.7712 202.589 92.6459 204.846 89.4354C207.123 86.2183 209.124 82.7982 211.446 79.5942C212.605 77.989 213.875 76.4624 215.289 75.0733C216.698 73.6974 218.251 72.4132 220.041 71.5483Z" fill="#5C412E"/>
<path d="M220.179 71.4501C220.37 72.7539 220.245 74.0774 220.1 75.3813C219.935 76.6851 219.698 77.9824 219.455 79.2732C218.975 81.8547 218.382 84.4231 217.553 86.9259C216.698 89.4157 215.599 91.8465 214.039 93.989C213.25 95.0504 212.341 96.0267 211.328 96.8719C210.815 97.2912 210.282 97.6778 209.709 98.012C209.426 98.1758 209.137 98.3396 208.834 98.4706L208.373 98.6475C208.294 98.6803 208.222 98.7065 208.143 98.7327L208.025 98.772C207.998 98.7785 207.906 98.8113 207.939 98.7523C207.906 98.8113 207.998 98.772 208.025 98.7654L208.143 98.7196C208.222 98.6868 208.294 98.6606 208.373 98.6278L208.827 98.4313C209.124 98.2937 209.407 98.1233 209.683 97.9464C210.236 97.5926 210.756 97.1864 211.249 96.754C212.236 95.8957 213.118 94.9194 213.875 93.8514C215.375 91.7089 216.461 89.3043 217.297 86.8277C218.145 84.351 218.738 81.7957 219.257 79.2273C219.527 77.9431 219.784 76.6589 219.981 75.3616C220.146 74.0709 220.317 72.7539 220.179 71.4501Z" fill="#5C412E"/>
<path d="M221.745 72.0791C222.114 74.4378 221.995 76.849 221.699 79.2142C221.357 81.5795 220.771 83.9055 219.981 86.1659C219.172 88.4133 218.152 90.5951 216.836 92.6C216.185 93.6025 215.454 94.5591 214.638 95.437C214.23 95.876 213.802 96.2954 213.348 96.6885C213.118 96.8785 212.914 97.0947 212.684 97.2913C212.453 97.4747 212.23 97.7106 211.92 97.7433C212.223 97.6975 212.434 97.4551 212.657 97.265C212.875 97.0619 213.072 96.8392 213.296 96.6361C213.73 96.2233 214.138 95.7908 214.526 95.3453C215.309 94.4542 216.013 93.4911 216.639 92.4821C217.902 90.4706 218.915 88.3084 219.698 86.0742C220.501 83.84 221.08 81.5271 221.469 79.188C221.653 78.0152 221.765 76.8293 221.817 75.6434C221.89 74.4575 221.896 73.2585 221.745 72.0791Z" fill="#5C412E"/>
<path d="M223.607 73.396C223.988 75.3092 224.16 77.2617 224.239 79.2142C224.324 81.1667 224.278 83.1192 224.153 85.0717C224.074 86.0479 223.975 87.0176 223.824 87.9873C223.673 88.957 223.488 89.9202 223.172 90.8571C222.863 91.7875 222.455 92.6851 221.968 93.5434C221.718 93.9628 221.462 94.3821 221.172 94.7752C221.027 94.9718 220.869 95.1618 220.705 95.3452C220.619 95.437 220.527 95.509 220.435 95.5942L220.297 95.7121L220.224 95.7711C220.218 95.7777 220.145 95.8366 220.192 95.8104C220.297 95.6859 220.534 95.4894 220.678 95.3256C220.836 95.1421 220.981 94.9456 221.113 94.7425C221.383 94.3362 221.619 93.9103 221.843 93.4779C222.297 92.6196 222.679 91.722 222.955 90.7981C223.501 88.9439 223.719 86.998 223.857 85.0586C224.002 83.1192 224.048 81.1732 224.008 79.2273C223.975 77.2748 223.877 75.3223 223.607 73.396Z" fill="#5C412E"/>
<path d="M225.641 74.3002C225.956 75.224 226.206 76.174 226.384 77.1372C226.535 78.1069 226.634 79.0831 226.66 80.0659C226.707 82.0315 226.509 83.9972 226.095 85.9169C225.667 87.8366 225.015 89.7105 224.114 91.4533C223.66 92.3248 223.14 93.1634 222.541 93.9431C222.232 94.3297 221.923 94.7031 221.594 95.0701C221.278 95.4239 220.85 95.7711 220.495 95.9939C220.837 95.7515 221.245 95.3911 221.541 95.0242C221.85 94.6507 222.14 94.2511 222.429 93.8579C223.002 93.0717 223.495 92.2265 223.916 91.3551C224.772 89.6057 225.417 87.758 225.818 85.8579C226.253 83.9644 226.45 82.0184 226.45 80.0725C226.424 78.1265 226.187 76.174 225.641 74.3002Z" fill="#5C412E"/>
<path opacity="0.5" d="M207.07 72.0202C207.07 72.0202 192.199 69.8056 186.375 85.1177C186.375 85.1177 195.614 74.962 207.07 72.0202Z" fill="white" fill-opacity="0.3"/>
<path fill-rule="evenodd" clip-rule="evenodd" d="M201.714 139.336C195.252 142.474 185.645 154.693 185.645 154.693L193.272 200.656L243.875 199.798L247.968 141.812C247.968 141.812 232.129 136.263 224.417 135.85C216.77 135.437 208.176 136.197 201.714 139.336Z" fill="white"/>
<path fill-rule="evenodd" clip-rule="evenodd" d="M249.199 219.198C249.014 219.316 248.824 219.441 248.633 219.552C246.606 220.83 244.507 222.015 242.348 223.097H242.342C242.342 223.097 242.335 223.097 242.335 223.103C231.951 228.332 220.225 231.28 207.788 231.28C204.689 231.28 201.629 231.097 198.621 230.736C195.311 230.35 192.074 229.747 188.909 228.948L189.198 227.074L193.272 200.656L210.716 200.296L221.969 200.066L238.38 199.726L243.875 199.614L248.6 216.997L249.199 219.198Z" fill="#213038"/>
<path fill-rule="evenodd" clip-rule="evenodd" d="M244.08 199.614L193.344 200.656L192.68 205.4L244.968 204.155L244.08 199.614Z" fill="black"/>
<path d="M219.83 199.614H212.664V205.4H219.83V199.614Z" fill="#E9C352"/>
<path fill-rule="evenodd" clip-rule="evenodd" d="M225.561 136.512L214.513 171.617L203.28 139.303C207.399 135.542 206.208 131.335 206.208 131.335L222.863 126.146C222.824 127.273 222.87 128.315 222.982 129.265C223.199 131.198 223.666 132.757 224.146 133.923C224.844 135.634 225.561 136.512 225.561 136.512Z" fill="#EFC4B6"/>
<path fill-rule="evenodd" clip-rule="evenodd" d="M225.562 136.492L233.57 142.205L222.87 155.06L225.568 157.576L214.52 171.611L225.562 136.492Z" fill="#ECEFF4"/>
<path fill-rule="evenodd" clip-rule="evenodd" d="M203.28 139.657L197.147 146.707L206.985 156.672L203.912 158.448L214.513 171.63L203.28 139.657Z" fill="#ECEFF4"/>
<path fill-rule="evenodd" clip-rule="evenodd" d="M203.934 135.97C204.961 135.97 205.79 136.812 205.79 137.853C205.79 138.894 204.961 139.736 203.934 139.736C202.908 139.736 202.079 138.894 202.079 137.853C202.079 136.812 202.908 135.97 203.934 135.97Z" fill="white"/>
<path fill-rule="evenodd" clip-rule="evenodd" d="M207.639 136.495C208.666 136.495 209.495 137.337 209.495 138.378C209.495 139.419 208.666 140.26 207.639 140.26C206.613 140.26 205.784 139.419 205.784 138.378C205.784 137.337 206.613 136.495 207.639 136.495Z" fill="white"/>
<path fill-rule="evenodd" clip-rule="evenodd" d="M211.345 136.495C212.372 136.495 213.201 137.337 213.201 138.378C213.201 139.419 212.372 140.26 211.345 140.26C210.319 140.26 209.49 139.419 209.49 138.378C209.496 137.337 210.325 136.495 211.345 136.495Z" fill="white"/>
<path d="M215.056 140.254C216.081 140.254 216.912 139.411 216.912 138.371C216.912 137.332 216.081 136.489 215.056 136.489C214.031 136.489 213.201 137.332 213.201 138.371C213.201 139.411 214.031 140.254 215.056 140.254Z" fill="white"/>
<path d="M218.762 139.736C219.787 139.736 220.618 138.893 220.618 137.853C220.618 136.813 219.787 135.97 218.762 135.97C217.738 135.97 216.907 136.813 216.907 137.853C216.907 138.893 217.738 139.736 218.762 139.736Z" fill="white"/>
<path fill-rule="evenodd" clip-rule="evenodd" d="M222.467 135.512C223.494 135.512 224.323 136.354 224.323 137.395C224.323 138.436 223.494 139.277 222.467 139.277C221.441 139.277 220.612 138.436 220.612 137.395C220.618 136.354 221.448 135.512 222.467 135.512Z" fill="white"/>
<path d="M226.066 138.373C227.03 138.373 227.811 137.53 227.811 136.49C227.811 135.45 227.03 134.607 226.066 134.607C225.102 134.607 224.321 135.45 224.321 136.49C224.321 137.53 225.102 138.373 226.066 138.373Z" fill="white"/>
<path fill-rule="evenodd" clip-rule="evenodd" d="M259.444 211.349C256.266 214.245 252.838 216.872 249.199 219.198C249.014 219.316 248.824 219.441 248.633 219.552C246.606 220.83 244.507 222.015 242.348 223.097H242.342C242.342 223.097 242.335 223.097 242.335 223.103C238.302 223.634 235.682 223.326 235.682 223.326C231.464 219.709 228.148 214.625 225.562 209.134C224.16 206.179 222.976 203.1 221.969 200.066C217.915 187.86 216.803 176.381 216.803 176.381L237.314 138.451C242.559 139.113 246.099 140.423 248.33 141.576C250.6 142.743 251.522 143.745 251.522 143.745L248.008 173.242L247.692 175.883L245.343 195.65L248.356 199.005L259.444 211.349Z" fill="#3B5362"/>
<path fill-rule="evenodd" clip-rule="evenodd" d="M212.309 176.485C212.309 176.485 212.032 187.86 210.716 200.295C209.887 208.066 208.657 216.256 206.827 222.323C206.156 224.558 205.406 226.504 204.557 228.043C204.557 228.043 202.188 229.576 198.621 230.736C195.311 230.35 192.074 229.747 188.909 228.947C186.303 228.292 183.75 227.506 181.262 226.589L189.6 198.461L181.361 157.714C184.033 152.957 185.947 150.756 193.272 146.294L212.309 176.485Z" fill="#3B5362"/>
<path d="M220.168 178.475C220.912 178.475 221.515 177.82 221.515 177.012C221.515 176.205 220.912 175.55 220.168 175.55C219.424 175.55 218.821 176.205 218.821 177.012C218.821 177.82 219.424 178.475 220.168 178.475Z" fill="#698593"/>
<path fill-rule="evenodd" clip-rule="evenodd" d="M221.512 181.592C222.257 181.592 222.858 182.252 222.858 183.055C222.858 183.866 222.257 184.518 221.512 184.518C220.767 184.518 220.165 183.858 220.165 183.055C220.165 182.252 220.773 181.592 221.512 181.592Z" fill="#698593"/>
<path fill-rule="evenodd" clip-rule="evenodd" d="M222.863 187.643C223.608 187.643 224.209 188.303 224.209 189.106C224.209 189.917 223.608 190.569 222.863 190.569C222.118 190.569 221.516 189.909 221.516 189.106C221.516 188.303 222.118 187.643 222.863 187.643Z" fill="#698593"/>
<path fill-rule="evenodd" clip-rule="evenodd" d="M224.213 193.694C224.959 193.694 225.56 194.354 225.56 195.157C225.56 195.968 224.959 196.619 224.213 196.619C223.468 196.619 222.867 195.96 222.867 195.157C222.86 194.346 223.468 193.694 224.213 193.694Z" fill="#698593"/>
<path d="M224.147 133.924C218.224 135.175 211.677 135.077 206.208 131.335C206.208 131.335 216.132 134.644 223.015 129.507C223.232 131.44 223.666 132.757 224.147 133.924Z" fill="black" fill-opacity="0.1"/>
<path fill-rule="evenodd" clip-rule="evenodd" d="M189.454 148.882L188.706 178.034C188.095 179.159 187.176 180.341 186.027 181.561C177.776 190.259 157.426 200.557 150.539 202.613H150.533C150.408 202.651 150.29 202.683 150.178 202.715C147.395 203.473 141.808 202.214 138.395 199.799C136.386 198.392 135.132 196.574 135.625 194.538C136.563 191.338 139.439 188.011 142.846 184.728C145.032 182.621 147.434 180.527 149.679 178.497C161.889 167.467 182.929 149.524 189.454 148.882Z" fill="#3B5362"/>
<path fill-rule="evenodd" clip-rule="evenodd" d="M155.356 200.42C153.737 201.331 152.131 202.045 150.539 202.608H150.532C146.051 204.187 141.675 204.515 137.365 204.384C119.064 203.827 103.159 188.81 94.5588 178.811C90.2289 173.78 87.748 170.019 87.748 170.019L95.6183 163.06L142.84 184.728L144.36 185.429L153.131 197.393L155.356 200.42Z" fill="#3B5362"/>
<path fill-rule="evenodd" clip-rule="evenodd" d="M80.9408 166.543L86.0995 173.974L99.0578 161.505L94.7168 155.206L80.9408 166.543Z" fill="white"/>
<path fill-rule="evenodd" clip-rule="evenodd" d="M93.96 159.758C94.6378 159.758 95.1906 160.256 95.1906 160.872C95.1906 161.488 94.6378 161.986 93.96 161.986C93.2823 161.986 92.7295 161.488 92.7295 160.872C92.7295 160.256 93.2823 159.758 93.96 159.758Z" fill="#ECEFF4"/>
<path fill-rule="evenodd" clip-rule="evenodd" d="M91.591 157.622C91.591 157.622 88.0244 153.481 86.445 153.2C77.1535 151.529 72.6919 150.716 69.8623 150.625C69.178 150.598 66.605 150.33 69.4807 152.636L74.2449 155.205L52.1675 160.866C52.1675 160.866 52.0951 162.779 57.7609 163.06C63.4267 163.342 80.0554 161.979 80.0554 161.979L83.2535 164.587L91.591 157.622Z" fill="#EFC4B6"/>
<path d="M73.7642 155.283C73.9682 155.434 74.6986 155.25 74.9618 155.204C75.9554 155.028 76.9557 154.857 77.9691 154.785" stroke="#EAAB88" stroke-miterlimit="10" stroke-linecap="round" stroke-linejoin="round"/>
<path d="M52.2534 161.082C52.3719 160.99 52.4837 161.265 52.6153 161.324C52.918 161.462 53.2405 161.547 53.5629 161.619C54.9317 161.94 56.4188 162.045 57.8205 162.019C62.8677 161.927 67.6516 160.544 72.5343 159.457" stroke="#EAAB88" stroke-miterlimit="10" stroke-linecap="round" stroke-linejoin="round"/>
<path d="M186.027 181.557C177.775 190.258 157.429 200.551 150.539 202.608H150.532C146.051 204.187 141.675 204.515 137.365 204.384C119.065 203.827 103.16 188.81 94.5591 178.812C110.273 191.011 122.855 199.116 138.391 199.798C140.708 199.916 143.09 199.85 145.558 199.614C148.111 199.372 150.644 198.579 153.132 197.393C167.628 190.481 180.289 170.137 182.592 166.284C184.915 171.945 185.955 177.023 186.027 181.557Z" fill="black" fill-opacity="0.1"/>
<path fill-rule="evenodd" clip-rule="evenodd" d="M264.42 183.581C264.058 192.617 263.347 202.038 262.841 208.066C261.748 209.2 260.616 210.294 259.445 211.349C256.267 214.245 252.838 216.872 249.199 219.198C249.015 219.316 248.824 219.44 248.633 219.552L248.601 216.997L248.357 199.005L248.021 174.336L248.008 173.242L247.581 141.354C247.581 141.354 247.857 141.412 248.331 141.576C251.16 142.507 261.163 146.824 263.94 161.691C264.788 166.245 264.775 174.729 264.42 183.581Z" fill="#3B5362"/>
<path d="M264.419 183.581C264.057 192.616 263.347 202.038 262.84 208.066C261.748 209.2 260.616 210.294 259.444 211.349C256.266 214.245 252.838 216.872 249.199 219.198C249.014 219.316 248.824 219.44 248.633 219.552C246.606 220.829 244.507 222.015 242.348 223.096H242.342C242.342 223.096 242.335 223.096 242.335 223.103C231.951 228.331 220.225 231.28 207.788 231.28C204.689 231.28 201.629 231.096 198.621 230.736C195.311 230.35 192.074 229.747 188.909 228.947C186.303 228.292 183.75 227.506 181.262 226.589C183.954 227.06 186.606 227.198 189.198 227.073C195.594 226.752 201.602 224.82 206.827 222.323C217.994 216.996 225.555 209.134 225.555 209.134H225.562C230.859 208.636 235.09 204.738 238.38 199.725C243.869 191.398 246.777 179.984 247.692 175.883C247.915 174.9 248.021 174.336 248.021 174.336L248.008 173.242C248.008 173.242 257.444 172.122 264.419 183.581Z" fill="black" fill-opacity="0.1"/>
<path opacity="0.53" d="M49.2192 96.4132V101.858H49.4101C49.3179 99.3158 49.2192 96.4132 49.2192 96.4132Z" fill="#FFFDFC"/>
<path d="M40.9277 110.788L42.8031 112.4V110.788H40.9277Z" fill="#35312D"/>
<path d="M50.7658 105.317L49.1865 109.078H48.4429C49.3181 107.683 50.7 105.416 50.7658 105.317Z" fill="#C9845B"/>
<path opacity="0.51" d="M45.942 91.5581L45.8696 91.6108L45.8959 91.591L45.942 91.5581Z" fill="#685C51"/>
<path d="M106.476 95.64L101.751 98.7784L101.58 95.64H106.476Z" fill="#35312D"/>
<path d="M101.751 95.64H42.8032V134.946H101.751V95.64Z" fill="#82AF95"/>
<path d="M49.7062 81.3632L39.7632 94.5458L105.403 94.3886L97.6053 81.3632H49.7062Z" fill="#5D361A"/>
<path d="M106.476 94.3885H39.3354V95.64H106.476V94.3885Z" fill="#E3BDB9"/>
<path opacity="0.39" d="M91.8674 100.81H86.9189V108.757H91.8674V100.81Z" fill="#58627A"/>
<path d="M92.4192 99.9185H86.3652V109.642H92.4192V99.9185Z" fill="#E7DBD1"/>
<path d="M91.7283 100.934H87.0562V108.626H91.7283V100.934Z" fill="#8D9FC2"/>
<path d="M91.8665 100.81H86.918V108.757H89.5041H89.6883H91.8665V100.81ZM91.5901 102.959H89.6883V101.059H91.5901V102.959ZM89.6883 103.129H91.5901V105.986H89.6883V103.129ZM89.5041 101.059V102.959H87.1944V101.059H89.5041ZM87.1944 103.129H89.5041V105.986H87.1944V103.129ZM87.1944 108.502V106.163H89.5041V108.502H87.1944ZM89.6883 108.502V106.163H91.5901V108.502H89.6883Z" fill="#E3E3D8"/>
<path d="M83.8328 99.9185H77.7788V109.642H83.8328V99.9185Z" fill="#E7DBD1"/>
<path d="M83.1414 100.934H78.4692V108.626H83.1414V100.934Z" fill="#8D9FC2"/>
<path d="M83.2732 100.81H78.3247V108.757H80.9108H81.0951H83.2732V100.81ZM82.9968 102.959H81.0951V101.059H82.9968V102.959ZM81.0951 103.129H82.9968V105.986H81.0951V103.129ZM80.9108 101.059V102.959H78.6011V101.059H80.9108ZM78.6077 103.129H80.9174V105.986H78.6077V103.129ZM78.6077 108.502V106.163H80.9174V108.502H78.6077ZM81.0951 108.502V106.163H82.9968V108.502H81.0951Z" fill="#E3E3D8"/>
<path d="M100.586 99.9185H94.5322V109.642H100.586V99.9185Z" fill="#E7DBD1"/>
<path d="M99.8948 100.934H95.2227V108.626H99.8948V100.934Z" fill="#8D9FC2"/>
<path d="M100.027 100.81H95.0781V108.757H97.6642H97.8485H100.027V100.81ZM99.7502 102.959H97.8485V101.059H99.7502V102.959ZM97.8485 103.129H99.7502V105.986H97.8485V103.129ZM97.6642 101.059V102.959H95.3545V101.059H97.6642ZM95.3611 103.129H97.6708V105.986H95.3611V103.129ZM95.3611 108.502V106.163H97.6708V108.502H95.3611ZM97.8485 108.502V106.163H99.7502V108.502H97.8485Z" fill="#E3E3D8"/>
<path d="M79.6274 110.651H42.8032V134.946H79.6274V110.651Z" fill="#95C8AC"/>
<path d="M111.516 116.502H79.6211V112.702H103.469L111.516 116.502Z" fill="#783F1D"/>
<path d="M111.516 116.502H79.6211V117.412H111.516V116.502Z" fill="#E5CDC9"/>
<path d="M111.194 131.519H80.437V134.952H111.194V131.519Z" fill="#B79274"/>
<path d="M79.6211 112.4L81.9242 110.788H79.6211V112.4Z" fill="#35312D"/>
<path d="M81.9239 109.078H40.9277V110.788H81.9239V109.078Z" fill="#E5CDC9"/>
<path opacity="0.53" d="M46.8501 103.529L41.6055 109.078H80.6341L75.067 103.909L46.8501 103.529Z" fill="#C9845B"/>
<path d="M80.6341 109.078H41.6055L46.8501 103.529H75.067L80.6341 109.078Z" fill="#5D361A"/>
<path d="M74.126 94.7227V103.529H46.8501V94.7227L61.4258 82.1298L66.2295 86.8865L74.126 94.7227Z" fill="#95C8AC"/>
<path d="M61.1233 90.3461C59.6493 90.3461 58.4517 89.2388 58.4517 87.8825C58.4517 86.5262 59.6493 85.4189 61.1233 85.4189C62.5973 85.4189 63.795 86.5262 63.795 87.8825C63.7884 89.2453 62.5908 90.3461 61.1233 90.3461Z" fill="#685C51"/>
<path d="M61.1233 90.3461C59.6493 90.3461 58.4517 89.2388 58.4517 87.8825C58.4517 86.5262 59.6493 85.4189 61.1233 85.4189C62.5973 85.4189 63.795 86.5262 63.795 87.8825C63.7884 89.2453 62.5908 90.3461 61.1233 90.3461Z" fill="#685C51"/>
<path d="M60.5971 86.1332C62.0711 86.1332 63.2687 87.2404 63.2687 88.5967C63.2687 88.9571 63.1832 89.3043 63.0318 89.6123C63.5056 89.1667 63.7951 88.5574 63.7951 87.8891C63.7951 86.5328 62.5975 85.4255 61.1235 85.4255C60.0443 85.4255 59.1099 86.0218 58.6953 86.8735C59.1757 86.4149 59.8469 86.1332 60.5971 86.1332Z" fill="#3C332B"/>
<path d="M61.123 85.2551C59.5503 85.2551 58.2671 86.4345 58.2671 87.889C58.2671 89.3436 59.5437 90.5229 61.123 90.5229C62.7023 90.5229 63.9789 89.3436 63.9789 87.889C63.9723 86.4345 62.6957 85.2551 61.123 85.2551ZM61.123 90.1757C59.7543 90.1757 58.6356 89.147 58.6356 87.8825C58.6356 86.6179 59.7477 85.5893 61.123 85.5893C62.4917 85.5893 63.6104 86.6179 63.6104 87.8825C63.6038 89.147 62.4917 90.1757 61.123 90.1757Z" fill="#E3E3D8"/>
<path d="M57.0701 93.3534H51.0161V103.077H57.0701V93.3534Z" fill="#E7DBD1"/>
<path d="M56.3791 94.3623H51.707V102.054H56.3791V94.3623Z" fill="#8D9FC2"/>
<path d="M56.5173 94.2378H51.5688V102.185H54.155H54.3392H56.5173V94.2378ZM56.241 96.3934H54.3392V94.4933H56.241V96.3934ZM54.3392 96.5638H56.241V99.4204H54.3392V96.5638ZM54.155 94.4933V96.3934H51.8452V94.4933H54.155ZM51.8452 96.5638H54.155V99.4204H51.8452V96.5638ZM51.8452 101.93V99.5908H54.155V101.93H51.8452ZM54.3392 101.93V99.5908H56.241V101.93H54.3392Z" fill="#E3E3D8"/>
<path d="M70.0267 93.3534H63.9727V103.077H70.0267V93.3534Z" fill="#E7DBD1"/>
<path d="M69.3362 94.3623H64.6641V102.054H69.3362V94.3623Z" fill="#8D9FC2"/>
<path d="M69.4739 94.2378H64.5254V102.185H67.1115H67.2958H69.4739V94.2378ZM69.1975 96.3934H67.2958V94.4933H69.1975V96.3934ZM67.2958 96.5638H69.1975V99.4204H67.2958V96.5638ZM67.1115 94.4933V96.3934H64.8018V94.4933H67.1115ZM64.8018 96.5638H67.1115V99.4204H64.8018V96.5638ZM64.8018 101.93V99.5908H67.1115V101.93H64.8018ZM67.2958 101.93V99.5908H69.1975V101.93H67.2958Z" fill="#E3E3D8"/>
<path d="M94.9605 118.31H86.373V129.724H94.9605V118.31Z" fill="#4A6E99"/>
<path d="M95.1046 129.357V118.159H86.221V129.324C85.8393 129.376 85.5498 129.697 85.5498 130.084H95.6376C95.631 129.75 95.4139 129.462 95.1046 129.357ZM90.4588 124.076V126.769H88.4715V124.076H90.4588ZM88.4715 123.833V121.219H90.4588V123.833H88.4715ZM92.9462 123.833H90.6957V121.219H92.9462V123.833ZM92.9462 124.076V126.769H90.6957V124.076H92.9462ZM92.9462 127.011V129.317H90.6957V127.011H92.9462ZM93.1897 129.311V127.005H94.8085V129.311H93.1897ZM94.8085 126.769H93.1897V124.076H94.8085V126.769ZM94.8085 123.833H93.1897V121.219H94.8085V123.833ZM92.9462 120.983H90.6957V118.461H92.9462V120.983ZM90.4588 120.983H88.4715V118.461H90.4588V120.983ZM90.4588 127.011V129.317H88.4715V127.011H90.4588ZM86.5171 124.076H88.228V126.769H86.5171V124.076ZM88.2346 123.833H86.5237V121.219H88.2346V123.833ZM86.5171 127.011H88.228V129.317H86.5171V127.011ZM94.8085 120.983H93.1897V118.461H94.8085V120.983ZM88.2346 118.461V120.983H86.5237V118.461H88.2346Z" fill="#B7B79C"/>
<path opacity="0.18" d="M90.3339 121.317H88.5703V123.702H90.3339V121.317Z" fill="#C4D9D9"/>
<path opacity="0.18" d="M92.762 124.148H90.834V126.579H92.762V124.148Z" fill="#C4D9D9"/>
<path opacity="0.18" d="M92.841 118.611H90.834V120.878H92.841V118.611Z" fill="#C4D9D9"/>
<path opacity="0.18" d="M92.841 121.317H90.834V123.538H92.841V121.317Z" fill="#C4D9D9"/>
<path opacity="0.18" d="M90.2483 124.207H88.5703V126.657H90.2483V124.207Z" fill="#C4D9D9"/>
<path opacity="0.18" d="M90.255 127.24H88.6494V129.121H90.255V127.24Z" fill="#C4D9D9"/>
<path d="M56.359 114.49H47.7715V125.904H56.359V114.49Z" fill="#4A6E99"/>
<path d="M56.5104 125.537V114.339H47.6268V125.504C47.2451 125.557 46.9556 125.878 46.9556 126.271H57.0434C57.0368 125.93 56.8131 125.642 56.5104 125.537ZM51.8646 120.256V122.949H49.8773V120.256H51.8646ZM49.8773 120.014V117.399H51.8646V120.014H49.8773ZM54.352 120.014H52.1015V117.399H54.352V120.014ZM54.352 120.256V122.949H52.1015V120.256H54.352ZM54.352 123.191V125.498H52.1015V123.191H54.352ZM54.5955 125.491V123.185H56.2143V125.491H54.5955ZM56.2143 122.949H54.5955V120.256H56.2143V122.949ZM56.2143 120.014H54.5955V117.399H56.2143V120.014ZM54.352 117.157H52.1015V114.634H54.352V117.157ZM51.8646 117.157H49.8773V114.634H51.8646V117.157ZM51.8646 123.191V125.498H49.8773V123.191H51.8646ZM47.9229 120.256H49.6338V122.949H47.9229V120.256ZM49.6404 120.014H47.9295V117.399H49.6404V120.014ZM47.9229 123.191H49.6338V125.498H47.9229V123.191ZM56.2143 117.157H54.5955V114.634H56.2143V117.157ZM49.6404 114.634V117.157H47.9295V114.634H49.6404Z" fill="#E3E3D8"/>
<path opacity="0.18" d="M51.7401 117.491H49.9766V119.876H51.7401V117.491Z" fill="#C4D9D9"/>
<path opacity="0.18" d="M54.1683 120.328H52.2402V122.759H54.1683V120.328Z" fill="#C4D9D9"/>
<path opacity="0.18" d="M54.2473 114.792H52.2402V117.059H54.2473V114.792Z" fill="#C4D9D9"/>
<path opacity="0.18" d="M54.2473 117.491H52.2402V119.712H54.2473V117.491Z" fill="#C4D9D9"/>
<path opacity="0.18" d="M51.6546 120.387H49.9766V122.837H51.6546V120.387Z" fill="#C4D9D9"/>
<path opacity="0.18" d="M51.6608 123.414H50.0552V125.294H51.6608V123.414Z" fill="#C4D9D9"/>
<path d="M73.2574 111.45H64.1304V129.678H73.2574V111.45Z" fill="#E3E3D8"/>
<path d="M67.1703 112.04H64.979V114.254H67.1703V112.04Z" fill="#68607D"/>
<path d="M69.7894 112.04H67.5981V114.254H69.7894V112.04Z" fill="#68607D"/>
<path d="M72.4677 112.04H70.2764V114.254H72.4677V112.04Z" fill="#68607D"/>
<path d="M72.4615 115.362H65.4468V129.842H72.4615V115.362Z" fill="#3C2E26"/>
<path d="M68.6972 115.971H66.0781V120.826H68.6972V115.971Z" fill="#4E392F"/>
<path d="M71.9481 115.971H69.3291V120.826H71.9481V115.971Z" fill="#4E392F"/>
<path d="M71.9479 121.311H66.0781V122.038H71.9479V121.311Z" fill="#4E392F"/>
<path d="M68.6381 122.3H66.019V129.167H68.6381V122.3Z" fill="#4E392F"/>
<path d="M71.8954 122.3H69.2764V129.167H71.8954V122.3Z" fill="#4E392F"/>
<path d="M75.4819 129.167H62.729V130.562H75.4819V129.167Z" fill="#8D8581"/>
<path d="M76.7252 130.562H61.498V131.958H76.7252V130.562Z" fill="#8D8581"/>
<path d="M78.0156 131.892H60.1958V133.288H78.0156V131.892Z" fill="#8D8581"/>
<path d="M79.483 133.229H58.4321V134.625H79.483V133.229Z" fill="#8D8581"/>
<path d="M80.1276 134.559H57.1421V135.955H80.1276V134.559Z" fill="#8D8581"/>
<path d="M109.668 127.706H80.6348V128.177H109.668V127.706Z" fill="#E3E3D8"/>
<path d="M108.943 117.412H107.607V131.519H108.943V117.412Z" fill="#E3E3D8"/>
<path d="M86.7935 117.412H85.7012V131.519H86.7935V117.412Z" fill="#E3E3D8"/>
<path d="M83.5432 127.942H82.6943V131.519H83.5432V127.942Z" fill="#E3E3D8"/>
<path d="M86.7937 127.942H85.9448V131.519H86.7937V127.942Z" fill="#E3E3D8"/>
<path d="M89.8337 127.942H88.9849V131.519H89.8337V127.942Z" fill="#E3E3D8"/>
<path d="M93.1829 127.942H92.334V131.519H93.1829V127.942Z" fill="#E3E3D8"/>
<path d="M96.2366 127.942H95.3877V131.519H96.2366V127.942Z" fill="#E3E3D8"/>
<path d="M99.8889 127.942H99.04V131.519H99.8889V127.942Z" fill="#E3E3D8"/>
<path d="M103.297 127.942H102.448V131.519H103.297V127.942Z" fill="#E3E3D8"/>
<path d="M105.877 127.942H105.028V131.519H105.877V127.942Z" fill="#E3E3D8"/>
<path d="M75.5015 96.5836L61.4194 82.464L45.5671 96.5115L45.2446 96.1511L61.4391 81.7957L75.8437 96.2428L75.5015 96.5836Z" fill="#E5CDC9"/>
<path d="M26.3984 80.8915L35.9796 84.1609" stroke="white" stroke-width="2" stroke-miterlimit="10" stroke-linecap="round" stroke-linejoin="round"/>
<path d="M32.5645 70.2378L41.0795 75.7022" stroke="white" stroke-width="2" stroke-miterlimit="10" stroke-linecap="round" stroke-linejoin="round"/>
<path d="M41.1191 61.3729L48.0681 68.7112" stroke="white" stroke-width="2" stroke-miterlimit="10" stroke-linecap="round" stroke-linejoin="round"/>
<path d="M51.5557 54.8077L56.5305 63.594" stroke="white" stroke-width="2" stroke-miterlimit="10" stroke-linecap="round" stroke-linejoin="round"/>
<path d="M63.2754 50.9291L65.9865 60.6457" stroke="white" stroke-width="2" stroke-miterlimit="10" stroke-linecap="round" stroke-linejoin="round"/>
<path d="M75.5801 49.9659L75.8762 60.0429" stroke="white" stroke-width="2" stroke-miterlimit="10" stroke-linecap="round" stroke-linejoin="round"/>
<path d="M87.7614 51.9644L85.6162 61.8251" stroke="white" stroke-width="2" stroke-miterlimit="10" stroke-linecap="round" stroke-linejoin="round"/>
<path d="M99.1063 56.8193L94.6514 65.8808" stroke="white" stroke-width="2" stroke-miterlimit="10" stroke-linecap="round" stroke-linejoin="round"/>
<path d="M108.95 64.2427L102.442 71.9675" stroke="white" stroke-width="2" stroke-miterlimit="10" stroke-linecap="round" stroke-linejoin="round"/>
<path d="M116.716 73.8022L108.536 79.7449" stroke="white" stroke-width="2" stroke-miterlimit="10" stroke-linecap="round" stroke-linejoin="round"/>
<path d="M121.953 84.9341L112.576 88.7539" stroke="white" stroke-width="2" stroke-miterlimit="10" stroke-linecap="round" stroke-linejoin="round"/>
<path d="M128.142 46.6002C129.159 40.4006 124.894 34.5478 118.617 33.5275C112.339 32.5072 106.427 36.7059 105.41 42.9054C104.394 49.105 108.659 54.9578 114.936 55.9781C121.213 56.9984 127.126 52.7997 128.142 46.6002Z" fill="white"/>
<path d="M120.057 40.164H115.622L115.175 43.1387C115.444 43.1059 115.694 43.0666 116.122 43.0666C117.017 43.0666 117.912 43.2632 118.623 43.689C119.537 44.2066 120.288 45.2025 120.288 46.6636C120.288 48.9241 118.485 50.6145 115.964 50.6145C114.694 50.6145 113.622 50.2607 113.069 49.9003L113.464 48.7079C113.944 48.9896 114.892 49.35 115.951 49.35C117.432 49.35 118.702 48.3868 118.702 46.8406C118.682 45.3467 117.682 44.2787 115.359 44.2787C114.694 44.2787 114.181 44.3508 113.753 44.4032L114.503 38.8536H120.064V40.164H120.057Z" fill="#74ACC2"/>
<path d="M95.9047 37.175C101.518 31.2305 101.226 21.8771 95.2516 16.2836C89.2771 10.6901 79.8829 10.9747 74.2691 16.9192C68.6554 22.8637 68.9478 32.217 74.9223 37.8105C80.8968 43.404 90.2909 43.1195 95.9047 37.175Z" fill="white"/>
<path d="M93.1569 21.2156L92.6766 20.6849C92.1501 20.1018 91.2947 20.1018 90.7682 20.6849L82.6611 29.6612L79.7855 26.4769C79.259 25.8938 78.4036 25.8938 77.8771 26.4769L77.3968 27.0011C76.8703 27.5842 76.8703 28.5342 77.3968 29.1108L81.707 33.8807C82.2334 34.4638 83.0889 34.4638 83.6153 33.8807L93.1635 23.3188C93.6834 22.7488 93.6834 21.7987 93.1569 21.2156Z" fill="#6AA181"/>
<path d="M53.2362 44.6625C57.7436 40.1746 57.7436 32.8982 53.2362 28.4102C48.7288 23.9223 41.4208 23.9223 36.9134 28.4102C32.4059 32.8982 32.4059 40.1746 36.9134 44.6625C41.4208 49.1505 48.7288 49.1505 53.2362 44.6625Z" fill="white"/>
<path d="M44.2256 31.9674C43.0213 30.5325 40.6655 30.3622 39.0007 30.3622C38.8296 30.3622 38.6914 30.5325 38.6914 30.7356C38.6914 32.7275 38.8296 35.5383 40.0338 36.9732C40.5997 37.576 41.3367 37.8905 42.0935 37.8511C42.87 37.8905 43.6333 37.576 44.2321 36.9732C45.1205 35.9052 45.285 33.232 44.2256 31.9674Z" fill="#73AC57"/>
<path d="M52.1423 31.8364C50.4774 31.8364 48.1216 32.0002 46.9174 33.4417C45.8514 34.7128 46.0225 37.3794 46.9174 38.454C47.5097 39.0567 48.273 39.3712 49.0561 39.3319C49.8128 39.3712 50.5498 39.0567 51.1157 38.454C52.32 37.0191 52.4582 34.2017 52.4582 32.2164C52.4582 32.0068 52.32 31.8364 52.1423 31.8364Z" fill="#73AC57"/>
<path d="M45.2528 45.3008C45.0817 45.3008 44.9369 45.1305 44.9369 44.9274C44.9369 37.006 42.5087 35.0207 41.5875 34.2738C41.4756 34.1886 41.3703 34.0969 41.2716 33.9921C41.1532 33.8414 41.1532 33.6055 41.2782 33.4613C41.3967 33.3238 41.5941 33.3238 41.7125 33.4613C41.7849 33.5334 41.8573 33.5989 41.9362 33.6579C42.7522 34.3197 44.6606 35.8856 45.3252 41.0224C45.8384 38.336 47.3519 36.0887 49.4379 34.9159C49.5959 34.8242 49.7867 34.8962 49.8788 35.0797C49.9578 35.2435 49.9117 35.4597 49.767 35.5514C49.7604 35.558 49.7538 35.558 49.7538 35.5645L49.7012 35.5908C46.2728 37.517 45.5555 41.7365 45.5555 44.9339C45.5621 45.1305 45.4239 45.3008 45.2528 45.3008Z" fill="#5C8C44"/>
</svg>
